<svg width="400" height="400" xmlns="http://www.w3.org/2000/svg">
 <g>
  <title>Layer 1</title>
  <path stroke="#000" fill="#fff" d="m199.96192,2.24128c-109.23207,0 -197.77972,88.54765 -197.77972,197.77973c0,109.23207 88.54782,197.77973 197.77972,197.77973c109.23207,0 197.77972,-88.54765 197.77972,-197.77973c0,-109.23207 -88.54782,-197.77973 -197.77972,-197.77973zm-105.44898,81.83893c1.66018,0.74849 3.47013,1.41522 3.81029,1.86434c0.53073,0.69409 1.22465,2.80323 0.35376,3.32036c-0.88449,0.53073 -2.27251,0.35376 -2.46307,-1.22465c-0.17697,-1.56498 -0.35376,-1.74178 -2.44947,-2.44947c-0.29936,-0.0952 -0.47633,-0.136 -0.69409,-0.20416c0.47633,-0.43553 0.96626,-0.87089 1.44242,-1.30642l0.00017,0zm-7.04905,6.72232c0.42193,1.18385 1.53778,1.70098 0,2.31331c-0.81649,0.32656 -1.66018,0.38096 -2.36787,0.28576c0.78929,-0.85729 1.53778,-1.76898 2.36787,-2.59907zm112.49803,266.16025c-86.56091,0 -156.95554,-70.39463 -156.95554,-156.94194c0,-1.15665 0.14977,-2.28611 0.17697,-3.45653c0.0544,-0.0408 0.1088,-0.0816 0.16337,-0.1224c1.75538,-1.38802 3.85109,-4.88534 4.54518,-6.12359c0.70769,-1.21105 2.46307,-2.09571 1.57858,-3.48373c-0.80289,-1.30642 -3.97349,-3.1298 -5.53847,-3.55172c0.136,-1.34722 0.43553,-2.65364 0.61233,-4.00085c0.85729,1.04785 1.86434,2.31331 2.83043,2.64004c1.56498,0.51713 6.81769,0.70769 7.70218,0.70769c0.85729,0 4.54518,0.19056 5.2527,-0.87089c0.69409,-1.04785 1.22465,-1.04785 2.09571,-1.04785c0.87089,0 2.44947,3.1434 3.68772,3.49733c1.21105,0.35376 3.49733,0.17697 3.32036,2.46307c-0.16337,2.25891 1.04785,4.20485 2.27251,4.36822c1.22465,0.17697 4.02805,-2.64004 4.02805,-2.64004s0,4.38181 -0.16337,5.9604c-0.17697,1.55138 1.91874,7.34841 1.91874,7.34841s2.62644,5.40247 3.32036,6.64072c0.70769,1.22465 3.67412,4.89894 3.67412,6.47752c0,1.59218 0.35376,4.04165 1.41522,4.04165s2.10931,-2.80323 3.32036,-4.55878c1.23825,-1.74178 1.59218,-4.21845 2.10931,-5.9604c0.53073,-1.75538 0.53073,-4.89894 0.53073,-6.12359c0,-1.23825 1.03425,-2.28611 3.49733,-3.33396c2.46307,-1.04785 4.20485,-4.02805 6.30056,-5.60647c2.10931,-1.57858 1.93234,-4.20485 6.15079,-4.20485c4.19125,0 3.83749,0 4.89894,-1.06145c1.04785,-1.04785 2.09571,-1.74178 2.61267,0.17697c0.53073,1.93234 3.49733,4.72198 4.02805,5.42967c0.53073,0.70769 1.57858,2.62644 1.41522,4.73558c-0.17697,2.08211 0.16337,4.54518 1.04785,4.54518c0.87089,0 2.62644,-2.9802 2.62644,-2.9802s3.85109,-2.61267 3.67412,0.19056c-0.19056,2.78963 0.34016,5.78343 0.34016,7.51161c0,1.76898 3.157,5.9604 3.157,4.92614c0,-1.07505 1.40162,-4.02805 1.40162,-5.62007c0,-1.55138 0.87089,-0.85729 3.1434,0.69409c2.27251,1.57858 3.85109,4.74918 3.85109,4.74918s2.28611,2.09571 2.62644,2.9802c0.35376,0.87089 2.80323,-0.34016 3.32036,-1.41522c0.53073,-1.03425 0.88449,-1.56498 2.27251,-1.91874c1.41522,-0.35376 3.1434,-0.35376 3.68772,-2.28611c0.53073,-1.93234 2.09571,-4.19125 0,-6.83129c-2.09571,-2.62644 -3.157,-4.36822 -4.72198,-5.60647c-1.59218,-1.22465 -2.80323,-4.38181 -2.80323,-4.38181s3.32036,-2.9666 4.36822,-4.02805c1.07505,-1.04785 2.62644,-0.34016 2.81683,0.87089c0.17697,1.23825 -1.56498,2.28611 -1.91874,4.91254c-0.35376,2.61267 2.09571,3.49733 2.80323,2.61267c0.69409,-0.88449 2.44947,-2.9802 2.44947,-3.49733c0,-0.53073 -1.21105,-0.35376 -1.38802,-2.27251c-0.17697,-1.93234 2.25891,-3.33396 3.1298,-2.81683c0.89809,0.53073 6.49112,-0.69409 9.11739,-2.09571s4.19125,-4.38181 5.78343,-5.60647c1.57858,-1.21105 7.00808,-5.2527 6.65432,-7.17145c-0.35376,-1.93234 0.16337,-4.54518 -1.22465,-7.00808c-1.40162,-2.44947 -3.157,-4.01445 -3.85109,-5.07574c-0.69409,-1.04785 2.9802,-1.22465 4.72198,-2.80323c1.75538,-1.57858 0,-2.9802 -0.87089,-2.80323c-0.87089,0.17697 -3.157,0.70769 -4.02805,0.53073c-0.87089,-0.17697 -1.40162,-1.04785 -2.80323,-2.10931c-1.38802,-1.04785 0.35376,-2.61267 1.23825,-2.43587c0.87089,0.17697 3.1298,-1.75538 4.19125,-2.62644c1.04785,-0.87089 2.62644,-1.56498 2.09571,-0.69409c-0.51713,0.87089 -1.74178,4.02805 -0.35376,4.20485c1.41522,0.17697 4.73558,-2.62644 5.2799,-2.44947c0.51713,0.17697 1.38802,2.44947 0.87089,3.49733c-0.53073,1.04785 -0.53073,2.80323 0.17697,2.62644c0.69409,-0.17697 2.09571,-1.75538 2.44947,-1.22465c0.36736,0.53073 2.09571,1.57858 1.22465,3.49733c-0.85729,1.93234 -2.62644,2.62644 -0.53073,3.86469c2.09571,1.21105 2.80323,0.16337 4.38181,-0.70769c1.56498,-0.87089 2.62644,-4.72198 1.74178,-5.9604c-0.87089,-1.22465 -2.9666,-3.67412 -2.9666,-4.54518c0,-0.87089 3.49733,-0.87089 3.49733,-2.27251s1.22465,-2.44947 2.44947,-2.9802c1.23825,-0.53073 2.80323,-2.80323 3.32036,-2.09571c0.53073,0.70769 3.68772,1.57858 4.54518,0.53073c0.87089,-1.04785 5.44327,-4.89894 8.2329,-7.00808c2.80323,-2.09571 3.85109,-4.54518 4.57238,-7.00808c0.69409,-2.44947 1.74178,-4.02805 1.38802,-5.9468l0,0c1.04785,2.44947 1.22465,4.20485 1.04785,6.12359c-0.17697,1.93234 0,5.9604 0.35376,6.47752c0.34016,0.53073 1.75538,1.74178 2.61267,1.40162c0.87089,-0.34016 -0.34016,-3.85109 -0.34016,-4.54518c0,-0.70769 1.22465,-1.75538 1.93234,-1.93234c0.70769,-0.17697 0,-3.1434 -0.88449,-4.38181c-0.85729,-1.22465 -2.09571,-1.93234 -1.38802,-2.09571c0.69409,-0.17697 1.56498,-1.57858 1.04785,-1.93234c-0.53073,-0.34016 -0.19056,-1.57858 -1.40162,-1.22465c-0.88449,0.25856 -3.27956,-0.20416 -3.19796,1.29282c-0.50353,-1.49682 -1.57858,-2.49027 -2.9394,-2.34051c-1.57858,0.17697 -2.46307,1.04785 -4.02805,1.04785s-0.34016,-2.44947 -1.04785,-2.44947c-0.69409,0 -2.28611,2.27251 -3.1434,1.04785c-0.87089,-1.22465 2.44947,-2.80323 5.07574,-3.67412c2.61267,-0.87089 6.99448,-5.9604 8.76363,-6.13719c1.74178,-0.17697 6.12359,0.35376 9.97468,0.17697c3.85109,-0.17697 5.07574,-1.75538 6.30056,-0.87089s3.85109,1.93234 5.42967,1.75538c1.57858,-0.19056 0.87089,0 3.32036,-1.75538c2.44947,-1.75538 4.73558,-2.62644 5.9604,-4.02805c1.22465,-1.40162 4.55878,-2.44947 4.73558,-1.04785c0.19056,1.40162 -0.35376,2.80323 1.04785,2.80323s3.51093,-1.40162 5.2527,-2.09571c1.75538,-0.69409 3.1434,-1.57858 3.1434,-1.57858s-7.17145,4.89894 -8.91323,5.9604c-1.75538,1.04785 -5.9604,1.75538 -7.71578,3.85109c-1.74178,2.10931 -2.78963,2.80323 -2.61267,5.08934c0.19056,2.27251 3.1434,5.2527 1.74178,7.34841c-1.40162,2.09571 -1.91874,5.07574 -1.91874,5.07574s2.09571,-2.9802 5.07574,-4.89894s4.73558,-4.54518 5.78343,-5.60647s4.20485,-1.23825 4.20485,-2.46307s0.87089,-2.80323 1.41522,-4.20485c0.51713,-1.40162 -1.04785,-1.06145 0,-2.80323c1.03425,-1.75538 0.87089,-3.157 6.12359,-3.157s3.49733,0.35376 7.70218,0.17697c4.20485,-0.17697 5.76983,-2.27251 9.79788,-3.33396c4.02805,-1.04785 7.17145,-1.74178 8.40987,-1.21105c1.22465,0.51713 3.157,0.16337 1.91874,-1.06145c-1.21105,-1.22465 -4.01445,-2.9802 -2.62644,-3.33396c1.41522,-0.35376 2.81683,-0.53073 3.34756,-1.93234c0.53073,-1.40162 -1.93234,-3.85109 -0.53073,-5.2527c1.41522,-1.40162 -1.04785,-3.1434 -2.81683,-3.49733c-1.74178,-0.34016 -8.57306,0.35376 -9.94748,-0.34016c-1.41522,-0.70769 -3.68772,-1.57858 -4.38181,-1.06145c-0.70769,0.53073 -2.28611,3.33396 -2.28611,3.33396s-1.22465,0.34016 -2.28611,-1.22465c-1.03425,-1.57858 -6.80409,-1.40162 -8.55947,-1.40162s-3.68772,0.34016 -5.62007,0.53073c-1.91874,0.17697 -2.9802,0.70769 -4.38181,-0.53073c-1.38802,-1.22465 -3.30676,-1.75538 -4.02805,-2.27251c-0.69409,-0.53073 -4.54518,-0.53073 -7.52521,-0.16337c-2.9666,0.34016 -5.9604,0.34016 -5.9604,0.34016s-1.41522,-0.53073 -3.49733,-1.75538c-2.09571,-1.22465 -4.20485,-2.09571 -4.91254,-2.09571c-0.69409,0 -6.10999,0.87089 -7.33481,0c-1.23825,-0.87089 -2.46307,-1.40162 -3.33396,-1.40162s-1.56498,-1.40162 -0.51713,-1.40162s5.9468,-1.40162 5.9468,-1.40162s-1.40162,-1.93234 -3.1434,-1.93234c-1.74178,0 -4.88534,-0.87089 -5.76983,-0.87089s-0.19056,0.87089 -1.93234,0.53073c-1.76898,-0.35376 -3.51093,-1.06145 -4.55878,-0.35376c-1.03425,0.69409 -3.51093,1.74178 -0.87089,2.44947c2.62644,0.70769 5.07574,0 5.78343,1.06145c0.70769,1.04785 0,1.56498 0,2.27251s-1.40162,2.62644 -2.27251,2.9802c-0.87089,0.34016 -1.94594,-0.53073 -3.67412,0.34016c-1.75538,0.87089 -6.13719,0.17697 -6.66792,0.70769c-0.51713,0.53073 -1.56498,-1.40162 -2.44947,-1.04785c-0.87089,0.34016 -3.157,2.62644 -4.38181,2.44947c-1.21105,-0.17697 -2.80323,-1.40162 -2.80323,-2.80323s-0.51713,-3.157 -1.04785,-3.51093c-0.51713,-0.34016 -4.38181,-0.53073 -5.78343,-0.34016c-1.40162,0.17697 -5.76983,0.51713 -6.49112,1.22465c-0.70769,0.70769 -2.62644,1.22465 -3.85109,1.22465s-2.27251,-1.22465 -4.89894,-1.57858c-2.61267,-0.35376 -8.3961,-0.53073 -9.10379,-0.35376s-2.9666,-0.34016 -2.10931,-1.04785c0.88449,-0.69409 3.49733,-2.9802 1.94594,-4.01445c-1.59218,-1.06145 -5.10311,-1.06145 -6.65432,-1.22465c-1.59218,-0.17697 -3.157,-0.53073 -5.62007,-0.17697c-2.46307,0.35376 -2.9802,1.57858 -4.02805,0.53073c-1.04785,-1.04785 2.62644,0.53073 -1.04785,-1.04785c-3.67412,-1.57858 -5.42967,-1.40162 -6.49112,-0.87089c-1.04785,0.53073 0.17697,0.34016 -2.61267,1.40162c-2.80323,1.06145 -4.38181,1.57858 -5.08934,1.75538c-0.69409,0.16337 -5.06214,-0.88449 -5.59287,-1.23825c-0.51713,-0.34016 -2.46307,0.17697 -4.20485,0.87089s-3.0346,1.74178 -4.77638,1.40162c-1.75538,-0.36736 -4.55878,-0.36736 -6.31416,0.34016c-1.75538,0.69409 -2.9802,0.69409 -4.72198,1.91874c-1.76898,1.22465 -5.07574,1.93234 -5.07574,1.93234s-0.83009,-0.0408 -1.83715,-0.0952c27.56994,-23.95022 63.45438,-38.57888 102.76815,-38.57888c86.56091,0 156.95554,70.39463 156.95554,156.95554s-70.40823,156.94194 -156.95554,156.94194l0,-0.00084zm-15.13219,-103.59824c0,0 2.81683,-0.35376 2.81683,-1.59218c0,-1.21105 -2.81683,-2.78963 -3.83749,-1.38802c-1.06145,1.38802 -2.9802,2.78963 -2.81683,4.02805c0.25856,1.91874 3.83749,-1.04785 3.83749,-1.04785zm-0.17697,-39.42257c-2.46307,3.17076 -2.27251,2.47667 -4.02805,1.74178c-1.74178,-0.68032 -4.54518,1.57858 -4.02805,2.47667c0.53073,0.87089 4.38181,-0.19056 5.2527,1.38802c0.88449,1.57858 0.88449,1.75538 2.62644,1.41522c1.74178,-0.35376 3.49733,-2.78963 2.9802,-4.01445c-0.51713,-1.26562 -2.80323,-3.0074 -2.80323,-3.0074l0,0.00017zm-0.51713,16.629c-0.69409,0 -5.60647,0.87089 -6.13719,1.07505c-0.53073,0.17697 -3.67412,-0.34016 -3.67412,-0.34016c-1.22465,1.21105 -0.35376,2.43587 1.57858,2.25891s5.9604,-0.70769 6.83129,-0.70769c0.88449,0 2.09571,-2.28611 1.40162,-2.28611l-0.00017,0zm-7.52521,-48.67612c-2.58547,0.40816 -4.19125,5.9604 -2.10931,5.78343c2.10931,-0.16337 4.38181,-6.12359 2.10931,-5.78343zm6.12359,31.17606c-0.70769,-0.87089 -2.46307,-3.68772 -4.39541,-2.9802c-0.57153,0.23136 -2.08211,3.33396 -0.16337,3.33396c1.93234,0 5.2663,0.51713 4.55878,-0.35376zm1.57858,-2.09571c3.157,-0.17697 2.27251,-3.33396 -0.17697,-3.49733c-0.69409,-0.0544 -2.9802,3.67412 0.17697,3.49733zm37.29966,28.88996c-2.62644,-0.53073 -3.32036,-1.38802 -6.12359,-2.78963c-2.81683,-1.40162 -9.11739,-1.40162 -9.28076,-0.53073c-0.19056,0.87089 0,0 -2.10931,-0.68032c-2.08211,-0.73489 -3.68772,0 -4.20485,-1.23825c-0.51713,-1.23825 -1.74178,-1.59218 -3.32036,-0.0272c-1.32002,1.32002 -1.93234,1.41522 1.06145,1.94594c2.9666,0.53073 3.85109,0.53073 2.61267,1.91874c-1.22465,1.41522 -2.09571,3.17076 -1.04785,3.32036c1.04785,0.20416 4.20485,-0.68032 4.54518,0c0.35376,0.73489 -0.69409,0.87089 2.81683,1.42882c3.51093,0.50353 4.20485,1.74178 4.88534,2.42227c0.69409,0.70769 2.80323,2.9938 1.41522,2.9938c-1.41522,0 -2.9802,1.74178 -1.93234,1.94594c1.04785,0.17697 4.20485,-0.53073 4.36822,0c0.19056,0.50353 1.94594,3.85109 3.68772,3.68772c1.75538,-0.17697 2.80323,-3.32036 3.67412,-4.21845c0.88449,-0.87089 4.38181,-1.41522 4.74918,0.16337c0.35376,1.57858 1.41522,3.17076 3.49733,4.23205c2.09571,1.03425 4.55878,2.09571 4.73558,1.21105c0.17697,-0.87089 -1.04785,-4.20485 -2.46307,-4.70838c-1.40162,-0.55793 -3.83749,-3.52453 -3.83749,-4.73558c0,-1.23825 -2.10931,-1.59218 -3.157,-2.47667c-1.06145,-0.88449 -1.94594,-3.33396 -4.57238,-3.86469l0.00017,-0.00017zm-129.94353,-25.92336c-1.14305,0.50353 -2.10931,6.47752 0,7.17145c2.09571,0.70769 3.32036,-2.78963 2.62644,-3.68772c-0.70769,-0.83009 -1.04785,-4.16405 -2.62644,-3.48373zm100.52284,14.88722c-1.60578,-0.68032 -4.55878,5.76983 -2.46307,6.30056c2.10931,0.54433 3.67412,-5.76983 2.46307,-6.30056zm3.51093,-60.06602c1.04785,0 2.44947,-0.69409 2.44947,-2.62644c0,-1.93234 2.44947,0 3.67412,-0.17697s1.91874,-1.40162 2.44947,-2.80323c0.068,-0.17697 0.1088,-0.28576 0.1224,-0.36736c-0.0408,0.32656 -0.0136,1.26562 1.29282,1.59218c2.09571,0.51713 2.78963,-0.87089 2.78963,-1.40162s3.85109,-1.40162 4.57238,-1.93234c0.69409,-0.51713 3.51093,-1.40162 3.67412,-2.09571c0.17697,-0.69409 0,-4.73558 0.87089,-5.07574c0.87089,-0.35376 2.09571,-0.35376 0.70769,-2.80323c-1.41522,-2.46307 -1.41522,-4.73558 -3.157,-3.68772c-1.29282,0.77569 -0.51713,3.86469 -1.56498,5.9604s-1.93234,4.02805 -2.62644,4.02805s-4.36822,1.40162 -5.42967,2.44947c-1.03425,1.04785 -6.12359,-0.87089 -6.81769,0c-0.70769,0.87089 -2.09571,1.91874 -2.9802,2.62644c-0.88449,0.69409 -3.33396,0.17697 -2.81683,2.27251c0.48993,2.12291 1.72818,4.04165 2.78963,4.04165l0.00017,-0.00034zm23.97742,-22.41243c2.44947,-0.17697 4.73558,-0.87089 4.73558,-0.87089s3.68772,0.17697 3.157,-1.57858c-0.54433,-1.74178 -4.38181,-1.91874 -5.10311,-1.74178c-0.69409,0.17697 -1.93234,-1.93234 -3.32036,-1.57858c-1.30642,0.31296 -1.74178,2.10931 -1.74178,2.62644c0,0.53073 -4.89894,1.56498 -3.33396,2.9802c1.57858,1.38802 3.17076,0.34016 5.60647,0.16337l0.00017,-0.00017zm-48.159,95.28374c1.41522,0.87089 4.02805,-2.9802 4.74918,-1.76898c0.69409,1.23825 -0.17697,1.76898 1.03425,3.34756c1.23825,1.55138 3.51093,1.38802 3.51093,1.38802s-0.17697,-4.20485 -2.10931,-5.2663c-1.93234,-1.04785 -3.157,-2.25891 -0.87089,-1.91874c2.27251,0.35376 3.49733,-0.53073 2.9802,-1.55138c-0.53073,-1.06145 -3.85109,-0.53073 -4.91254,-0.35376s-2.62644,-0.70769 -2.62644,-0.70769c-1.04785,0.32656 -0.85729,1.21105 -1.22465,2.9802c-0.35376,1.72818 -1.93234,2.953 -0.53073,3.85109zm95.4471,34.83659c-3.1434,-0.70769 -1.04785,0.53073 0,2.09571c1.04785,1.57858 3.157,2.39507 3.51093,0.68032c0.14977,-0.85729 -0.36736,-2.06851 -3.51093,-2.77603zm13.48561,42.53876c-1.04785,0.87089 0,1.23825 -2.9802,2.9938c-2.9938,1.76898 -6.66792,3.68772 -7.36201,5.2527c-0.70769,1.57858 0.69409,2.46307 3.51093,2.61267c2.80323,0.17697 2.09571,0.72129 4.02805,-1.40162s3.68772,-3.32036 5.9604,-5.07574c2.28611,-1.74178 2.28611,-4.38181 2.28611,-4.38181s-2.46307,-2.42227 -2.62644,-1.91874c-0.29936,0.84369 -1.76898,1.06145 -2.81683,1.91874zm-46.41722,-42.53876c0.19056,-1.57858 -2.9802,-1.57858 -4.54518,-2.81683c-1.57858,-1.21105 -1.74178,-4.88534 -2.62644,-7.00808c-0.87089,-2.08211 -2.61267,-3.49733 -4.38181,-5.40247c-1.74178,-1.94594 -2.61267,-6.32776 -3.1298,-5.9604c-0.53073,0.34016 -2.09571,5.42967 -0.87089,7.00808c1.22465,1.57858 -0.53073,4.73558 -1.40162,6.84489c-0.88449,2.08211 -2.9938,-0.35376 -4.74918,-1.41522c-1.75538,-1.06145 -4.19125,-1.74178 -5.41607,-2.9802c-1.22465,-1.23825 2.10931,-4.55878 1.23825,-5.79703c-0.88449,-1.22465 -5.60647,-0.17697 -6.12359,-0.17697c-0.53073,0 -1.57858,-1.74178 -2.64004,-1.74178c-1.04785,0 -0.87089,3.51093 -0.87089,3.51093s-1.06145,-1.23825 -2.62644,-2.81683c-1.59218,-1.56498 0.16337,1.04785 -1.40162,2.62644c-1.59218,1.59218 -1.07505,1.06145 -1.75538,2.80323c-0.69409,1.75538 -2.27251,1.04785 -3.85109,-0.70769c-1.57858,-1.74178 -2.43587,-0.50353 -3.51093,0c-1.04785,0.53073 -1.91874,3.52453 -2.44947,4.20485c-0.53073,0.70769 -4.20485,1.59218 -5.08934,2.47667c-0.87089,0.84369 -1.22465,3.67412 -1.22465,4.38181c0,0.68032 -3.68772,0.31296 -4.91254,1.21105c-1.22465,0.87089 -3.1298,0.34016 -4.36822,0.34016c-1.22465,0 -5.42967,3.32036 -6.83129,4.19125c-1.40162,0.89809 -1.40162,4.05525 -0.69409,4.92614c0.69409,0.85729 2.09571,2.9802 1.22465,3.32036c-0.87089,0.35376 -1.41522,2.80323 0.69409,4.88534c2.09571,2.10931 1.40162,2.64004 1.56498,3.68772c0.19056,1.04785 1.06145,1.41522 2.46307,3.157c1.38802,1.74178 -2.46307,3.1434 -2.9802,4.21845c-0.53073,1.03425 1.23825,2.61267 2.27251,3.49733c1.04785,0.85729 3.68772,0.35376 5.2527,-0.17697c1.59218,-0.53073 3.33396,-1.94594 4.36822,-2.10931c1.07505,-0.17697 5.9604,-0.35376 5.9604,-0.35376s1.75538,-2.61267 2.9802,-4.02805c1.21105,-1.38802 5.06214,-0.17697 5.06214,-0.17697s1.59218,-1.03425 5.79703,-1.91874c4.20485,-0.88449 2.43587,0.87089 4.02805,1.41522c1.56498,0.50353 3.67412,0.84369 4.88534,1.74178c1.22465,0.87089 0,2.9666 -0.16337,3.85109c-0.19056,0.87089 2.9802,0.51713 3.1298,-0.35376c0.19056,-0.87089 1.04785,-1.74178 2.81683,-2.78963c1.74178,-1.06145 0.34016,1.55138 1.03425,3.1434c0.70769,1.57858 1.75538,-2.13651 1.75538,-0.35376c0,0.53073 0.53073,1.06145 0.69409,1.57858c0.19056,0.53073 2.46307,0.70769 2.46307,2.44947c0,1.76898 0,2.81683 0.53073,3.1434c0.51713,0.35376 3.32036,0 4.55878,2.10931c1.21105,2.09571 2.09571,0.17697 2.78963,-0.70769c0.70769,-0.87089 3.1434,0.35376 3.85109,1.06145c0.70769,0.68032 2.62644,-1.41522 5.2663,-2.10931c2.61267,-0.69409 2.27251,-0.53073 2.9802,-1.56498c0.69409,-1.06145 1.22465,-3.85109 2.78963,-5.9604c1.56498,-2.08211 3.68772,-5.76983 3.68772,-8.58666c0,-2.80323 -0.19056,-9.28076 -2.10931,-12.23359c-1.91874,-2.9802 -5.57927,-5.974 -5.41607,-7.53881l0.00034,0.0005zm-6.46376,42.89269c-0.88449,-0.17697 -2.81683,-0.84369 -2.81683,-0.84369c-1.93234,1.91874 1.93234,1.91874 1.41522,3.85109c-0.53073,1.91874 2.62644,1.21105 3.49733,0.87089c0.85729,-0.36736 2.9938,-4.39541 2.62644,-5.42967c-0.34016,-1.07505 -3.85109,1.72818 -4.72198,1.55138l-0.00017,0zm64.96496,-8.05594c-0.70769,0 -1.04785,0.87089 -2.61267,0c-1.59218,-0.85729 -1.23825,-0.50353 -2.28611,-2.27251c-1.04785,-1.72818 -1.23825,-4.02805 -2.9802,-3.1298c-0.69409,0.34016 0,2.28611 0.69409,2.9666c0.72129,0.70769 1.04785,3.1434 0.87089,3.85109c-0.16337,0.70769 -3.1434,1.57858 -1.75538,2.44947c1.41522,0.87089 4.04165,0 3.68772,1.06145c-0.34016,1.04785 -1.75538,2.43587 -0.17697,2.78963c1.56498,0.34016 2.09571,-1.21105 2.81683,-2.42227c0.69409,-1.26562 1.21105,-2.29971 2.43587,-3.0074c1.22465,-0.70769 0,-2.28611 -0.69409,-2.28611l0,-0.00017zm0.16337,-40.79698c2.28611,0.87089 6.31416,-3.1434 4.72198,-3.67412c-1.56498,-0.53073 -4.72198,3.67412 -4.72198,3.67412zm-121.00293,-17.33669c-0.39456,1.56498 2.62644,2.27251 2.80323,0.53073c0.16337,-1.75538 -2.44947,-1.93234 -2.80323,-0.53073zm4.72198,-46.75738c-0.87089,0.88449 -3.49733,2.62644 -3.85109,4.21845c-0.34016,1.56498 4.20485,-2.47667 5.42967,-4.02805c1.23825,-1.59218 3.67412,-0.70769 4.19125,-1.59218c0.54433,-0.85729 0.54433,-0.85729 0.54433,-0.85729s-1.93234,-0.34016 -3.49733,-0.85729c-1.59218,-0.53073 -3.51093,1.38802 -2.62644,-1.41522c0.87089,-2.80323 3.49733,-2.27251 2.9802,-4.38181c-0.53073,-2.09571 -2.28611,-2.62644 -2.81683,-2.62644c-1.22465,0 0.17697,1.91874 -1.57858,3.1434c-1.74178,1.22465 -3.68772,1.74178 -2.62644,3.85109c1.04785,2.09571 4.72198,3.66052 3.85109,4.54518l0.00017,0.00017zm-13.82577,44.64807c0.17697,-1.03425 -1.93234,-2.61267 -2.80323,-2.61267c-0.88449,0 -5.2527,-1.04785 -5.2527,-1.04785c-0.78929,0.31296 -1.83715,0.61233 -2.15011,1.04785c-0.0952,-0.14977 -0.29936,-0.32656 -0.66672,-0.53073c-1.93234,-1.02065 -4.20485,0 -4.91254,-1.38802c-0.68032,-1.41522 -1.72818,-1.41522 -2.43587,-0.53073c-1.27922,1.59218 0.34016,2.80323 0.85729,3.1434c0.51713,0.32656 2.46307,0.70769 4.20485,0.53073c1.08865,-0.1088 2.46307,-0.36736 2.85763,-0.80289c0.0544,0.19056 0.21776,0.36736 0.47633,0.59873c1.40162,1.25202 2.27251,1.76898 4.36822,1.57858c2.12291,-0.136 5.2799,1.07505 5.45687,0.0136zm-5.07574,-10.32844c0.88449,0 2.62644,0 3.85109,0.35376c1.22465,0.34016 5.2527,0.68032 5.07574,-0.87089c-0.17697,-1.56498 -0.51713,-4.04165 1.21105,-5.59287c1.76898,-1.59218 3.49733,-2.44947 2.62644,-4.73558c-0.85729,-2.27251 -2.62644,-3.68772 -1.40162,-4.74918c1.22465,-1.03425 2.61267,-1.38802 2.61267,-2.25891c0,-0.88449 -2.953,2.44947 -3.32036,-3.34756c-0.068,-1.23825 -2.80323,0.34016 -2.9802,1.57858c-0.16337,1.23825 1.93234,2.27251 -1.40162,2.27251c-3.33396,0 -3.49733,2.64004 -4.20485,3.157c-0.70769,0.53073 -1.40162,0.69409 -2.81683,1.03425c-1.38802,0.35376 -1.72818,1.76898 -2.08211,2.64004c-0.34016,0.85729 -2.80323,-1.57858 -3.49733,-0.87089c-0.69409,0.70769 -0.17697,4.02805 1.04785,6.81769c1.25202,2.81683 4.39541,4.57238 5.2799,4.57238l0.00017,-0.00034zm-12.27455,-0.87089c0.88449,-1.04785 0.51713,-2.61267 -0.85729,-2.44947c-1.40162,0.17697 -2.62644,-2.28611 -4.89894,-3.85109c-2.28611,-1.55138 -4.02805,-2.64004 -6.13719,-4.89894c-2.09571,-2.27251 -4.72198,-3.68772 -6.12359,-4.88534c-1.41522,-1.23825 -3.49733,-1.76898 -4.38181,-1.57858c-2.16371,0.43553 3.1434,4.20485 3.68772,4.70838c0.53073,0.55793 5.2663,4.55878 5.2663,6.50472s3.1434,6.47752 4.02805,7.17145c0.87089,0.70769 5.2391,3.32036 5.9468,4.73558c0.70769,1.40162 2.27251,1.76898 2.27251,-0.17697c-0.0136,-1.93234 0.34016,-4.21845 1.19745,-5.2799l0,0.00017zm-13.29504,-19.78617c0.87089,3.157 2.62644,6.31416 3.32036,7.55241c0.70769,1.21105 3.68772,2.953 4.73558,3.82389c1.04785,0.87089 2.61267,-0.32656 1.94594,-1.38802c-0.70769,-1.06145 -2.10931,-2.61267 -2.27251,-3.85109c-0.17697,-1.23825 -1.06145,-3.17076 -2.46307,-5.2663c-1.38802,-2.08211 -2.61267,-2.61267 -3.49733,-4.01445c-0.87089,-1.41522 -4.02805,-4.04165 -4.02805,-4.04165c-1.38802,0.17697 -1.38802,2.78963 -0.69409,3.68772c0.66672,0.85729 2.08211,0.35376 2.953,3.49733l0.00017,0.00017z" id="svg_7"/>
  <text fill="#000000" stroke="#000" stroke-width="0" x="21.70095" y="22.86506" id="svg_8" font-size="24" font-family="Noto Sans JP" text-anchor="start" xml:space="preserve"/>
 </g>

</svg>