<svg width="29.999999999999996" height="29.999999999999996" xmlns="http://www.w3.org/2000/svg">
 <g>
  <title>Layer 1</title>
  <path stroke="#000" id="svg_7" d="m14.98891,0.16835c-8.17762,0 -14.80671,6.62909 -14.80671,14.80671c0,8.17761 6.62909,14.80671 14.80671,14.80671c8.17762,0 14.80671,-6.62909 14.80671,-14.80671c0,-8.17761 -6.62909,-14.80671 -14.80671,-14.80671zm-7.8944,6.12684c0.12429,0.05603 0.25978,0.10595 0.28525,0.13957c0.03973,0.05196 0.09169,0.20987 0.02649,0.24858c-0.06622,0.03973 -0.17013,0.02649 -0.1844,-0.09169c-0.01324,-0.11716 -0.02649,-0.1304 -0.18338,-0.18338c-0.02241,-0.00713 -0.03566,-0.01019 -0.05196,-0.01528c0.03566,-0.0326 0.07233,-0.0652 0.10799,-0.0978zm-0.52772,0.50327c0.03158,0.08863 0.11512,0.12735 0,0.17319c-0.06113,0.02445 -0.12429,0.02853 -0.17726,0.02139c0.05909,-0.06418 0.11512,-0.13244 0.17726,-0.19458zm8.42212,19.926c-6.48035,0 -11.75042,-5.27006 -11.75042,-11.7494c0,-0.08659 0.01121,-0.17115 0.01324,-0.25877c0.00408,-0.00306 0.00815,-0.00611 0.01223,-0.00917c0.13142,-0.10391 0.28831,-0.36574 0.34027,-0.45844c0.05298,-0.09067 0.1844,-0.15689 0.11818,-0.2608c-0.06011,-0.0978 -0.29748,-0.23432 -0.41464,-0.2659c0.01019,-0.10086 0.0326,-0.19866 0.04584,-0.29952c0.06418,0.07844 0.13957,0.17319 0.2119,0.19764c0.11716,0.03871 0.5104,0.05298 0.57662,0.05298c0.06418,0 0.34027,0.01426 0.39324,-0.0652c0.05196,-0.07844 0.09169,-0.07844 0.15689,-0.07844c0.0652,0 0.18338,0.23533 0.27608,0.26182c0.09067,0.02649 0.26182,0.01324 0.24858,0.1844c-0.01223,0.16911 0.07844,0.3148 0.17013,0.32702c0.09169,0.01324 0.30155,-0.19764 0.30155,-0.19764s0,0.32804 -0.01223,0.44622c-0.01324,0.11614 0.14365,0.55013 0.14365,0.55013s0.19662,0.40445 0.24858,0.49716c0.05298,0.09169 0.27507,0.36675 0.27507,0.48493c0,0.1192 0.02649,0.30257 0.10595,0.30257s0.15791,-0.20987 0.24858,-0.34129c0.09271,-0.1304 0.1192,-0.31582 0.15791,-0.44622c0.03973,-0.13142 0.03973,-0.36675 0.03973,-0.45844c0,-0.09271 0.07743,-0.17115 0.26182,-0.2496c0.1844,-0.07844 0.3148,-0.30155 0.47169,-0.41973c0.15791,-0.11818 0.14466,-0.3148 0.46048,-0.3148c0.31378,0 0.28729,0 0.36675,-0.07946c0.07844,-0.07844 0.15689,-0.1304 0.1956,0.01324c0.03973,0.14466 0.26182,0.35351 0.30155,0.40649c0.03973,0.05298 0.11818,0.19662 0.10595,0.35453c-0.01324,0.15587 0.01223,0.34027 0.07844,0.34027c0.0652,0 0.19662,-0.22311 0.19662,-0.22311s0.28831,-0.1956 0.27507,0.01426c-0.01426,0.20885 0.02547,0.43297 0.02547,0.56236c0,0.13244 0.23635,0.44622 0.23635,0.36879c0,-0.08048 0.10493,-0.30155 0.10493,-0.42075c0,-0.11614 0.0652,-0.06418 0.23533,0.05196c0.17013,0.11818 0.28831,0.35555 0.28831,0.35555s0.17115,0.15689 0.19662,0.22311c0.02649,0.0652 0.20987,-0.02547 0.24858,-0.10595c0.03973,-0.07743 0.06622,-0.11716 0.17013,-0.14365c0.10595,-0.02649 0.23533,-0.02649 0.27608,-0.17115c0.03973,-0.14466 0.15689,-0.31378 0,-0.51142c-0.15689,-0.19662 -0.23635,-0.32702 -0.35351,-0.41973c-0.1192,-0.09169 -0.20987,-0.32804 -0.20987,-0.32804s0.24858,-0.22209 0.32702,-0.30155c0.08048,-0.07844 0.19662,-0.02547 0.21088,0.0652c0.01324,0.09271 -0.11716,0.17115 -0.14365,0.36777c-0.02649,0.1956 0.15689,0.26182 0.20987,0.1956c0.05196,-0.06622 0.18338,-0.22311 0.18338,-0.26182c0,-0.03973 -0.09067,-0.02649 -0.10391,-0.17013c-0.01324,-0.14466 0.16911,-0.2496 0.23432,-0.21088c0.06724,0.03973 0.48595,-0.05196 0.68257,-0.15689s0.31378,-0.32804 0.43297,-0.41973c0.11818,-0.09067 0.52466,-0.39324 0.49818,-0.53689c-0.02649,-0.14466 0.01223,-0.34027 -0.09169,-0.52466c-0.10493,-0.18338 -0.23635,-0.30054 -0.28831,-0.38c-0.05196,-0.07844 0.22311,-0.09169 0.35351,-0.20987c0.13142,-0.11818 0,-0.22311 -0.0652,-0.20987c-0.0652,0.01324 -0.23635,0.05298 -0.30155,0.03973c-0.0652,-0.01324 -0.10493,-0.07844 -0.20987,-0.15791c-0.10391,-0.07844 0.02649,-0.1956 0.09271,-0.18236c0.0652,0.01324 0.23432,-0.13142 0.31378,-0.19662c0.07844,-0.0652 0.19662,-0.11716 0.15689,-0.05196c-0.03871,0.0652 -0.1304,0.30155 -0.02649,0.3148c0.10595,0.01324 0.35453,-0.19662 0.39528,-0.18338c0.03871,0.01324 0.10391,0.18338 0.0652,0.26182c-0.03973,0.07844 -0.03973,0.20987 0.01324,0.19662c0.05196,-0.01324 0.15689,-0.13142 0.18338,-0.09169c0.02751,0.03973 0.15689,0.11818 0.09169,0.26182c-0.06418,0.14466 -0.19662,0.19662 -0.03973,0.28933c0.15689,0.09067 0.20987,0.01223 0.32804,-0.05298c0.11716,-0.0652 0.19662,-0.35351 0.1304,-0.44622c-0.0652,-0.09169 -0.22209,-0.27507 -0.22209,-0.34027c0,-0.0652 0.26182,-0.0652 0.26182,-0.17013s0.09169,-0.18338 0.18338,-0.22311c0.09271,-0.03973 0.20987,-0.20987 0.24858,-0.15689c0.03973,0.05298 0.27608,0.11818 0.34027,0.03973c0.0652,-0.07844 0.40751,-0.36675 0.61635,-0.52466c0.20987,-0.15689 0.28831,-0.34027 0.3423,-0.52466c0.05196,-0.18338 0.1304,-0.30155 0.10391,-0.4452l0,0c0.07844,0.18338 0.09169,0.3148 0.07844,0.45844c-0.01324,0.14466 0,0.44622 0.02649,0.48493c0.02547,0.03973 0.13142,0.1304 0.1956,0.10493c0.0652,-0.02547 -0.02547,-0.28831 -0.02547,-0.34027c0,-0.05298 0.09169,-0.13142 0.14466,-0.14466c0.05298,-0.01324 0,-0.23533 -0.06622,-0.32804c-0.06418,-0.09169 -0.15689,-0.14466 -0.10391,-0.15689c0.05196,-0.01324 0.11716,-0.11818 0.07844,-0.14466c-0.03973,-0.02547 -0.01426,-0.11818 -0.10493,-0.09169c-0.06622,0.01936 -0.24552,-0.01528 -0.23941,0.09678c-0.03769,-0.11206 -0.11818,-0.18643 -0.22005,-0.17523c-0.11818,0.01324 -0.1844,0.07844 -0.30155,0.07844s-0.02547,-0.18338 -0.07844,-0.18338c-0.05196,0 -0.17115,0.17013 -0.23533,0.07844c-0.0652,-0.09169 0.18338,-0.20987 0.38,-0.27507c0.1956,-0.0652 0.52364,-0.44622 0.65608,-0.45946c0.1304,-0.01324 0.45844,0.02649 0.74675,0.01324c0.28831,-0.01324 0.38,-0.13142 0.47169,-0.0652s0.28831,0.14466 0.40649,0.13142c0.11818,-0.01426 0.0652,0 0.24858,-0.13142c0.18338,-0.13142 0.35453,-0.19662 0.44622,-0.30155c0.09169,-0.10493 0.34129,-0.18338 0.35453,-0.07844c0.01426,0.10493 -0.02649,0.20987 0.07844,0.20987s0.26284,-0.10493 0.39324,-0.15689c0.13142,-0.05196 0.23533,-0.11818 0.23533,-0.11818s-0.53689,0.36675 -0.66729,0.44622c-0.13142,0.07844 -0.44622,0.13142 -0.57764,0.28831c-0.1304,0.15791 -0.20885,0.20987 -0.1956,0.38102c0.01426,0.17013 0.23533,0.39324 0.1304,0.55013c-0.10493,0.15689 -0.14365,0.38 -0.14365,0.38s0.15689,-0.22311 0.38,-0.36675s0.35453,-0.34027 0.43297,-0.41973s0.3148,-0.09271 0.3148,-0.1844s0.0652,-0.20987 0.10595,-0.3148c0.03871,-0.10493 -0.07844,-0.07946 0,-0.20987c0.07743,-0.13142 0.0652,-0.23635 0.45844,-0.23635s0.26182,0.02649 0.57662,0.01324c0.3148,-0.01324 0.43196,-0.17013 0.73351,-0.2496c0.30155,-0.07844 0.53689,-0.1304 0.6296,-0.09067c0.09169,0.03871 0.23635,0.01223 0.14365,-0.07946c-0.09067,-0.09169 -0.30054,-0.22311 -0.19662,-0.2496c0.10595,-0.02649 0.21088,-0.03973 0.25062,-0.14466c0.03973,-0.10493 -0.14466,-0.28831 -0.03973,-0.39324c0.10595,-0.10493 -0.07844,-0.23533 -0.21088,-0.26182c-0.1304,-0.02547 -0.64182,0.02649 -0.74472,-0.02547c-0.10595,-0.05298 -0.27608,-0.11818 -0.32804,-0.07946c-0.05298,0.03973 -0.17115,0.2496 -0.17115,0.2496s-0.09169,0.02547 -0.17115,-0.09169c-0.07743,-0.11818 -0.50938,-0.10493 -0.6408,-0.10493s-0.27608,0.02547 -0.42075,0.03973c-0.14365,0.01324 -0.22311,0.05298 -0.32804,-0.03973c-0.10391,-0.09169 -0.24756,-0.13142 -0.30155,-0.17013c-0.05196,-0.03973 -0.34027,-0.03973 -0.56338,-0.01223c-0.22209,0.02547 -0.44622,0.02547 -0.44622,0.02547s-0.10595,-0.03973 -0.26182,-0.13142c-0.15689,-0.09169 -0.3148,-0.15689 -0.36777,-0.15689c-0.05196,0 -0.45742,0.0652 -0.54911,0c-0.09271,-0.0652 -0.1844,-0.10493 -0.2496,-0.10493s-0.11716,-0.10493 -0.03871,-0.10493s0.4452,-0.10493 0.4452,-0.10493s-0.10493,-0.14466 -0.23533,-0.14466c-0.1304,0 -0.36574,-0.0652 -0.43196,-0.0652s-0.01426,0.0652 -0.14466,0.03973c-0.13244,-0.02649 -0.26284,-0.07946 -0.34129,-0.02649c-0.07743,0.05196 -0.26284,0.1304 -0.0652,0.18338c0.19662,0.05298 0.38,0 0.43297,0.07946c0.05298,0.07844 0,0.11716 0,0.17013s-0.10493,0.19662 -0.17013,0.22311c-0.0652,0.02547 -0.14568,-0.03973 -0.27507,0.02547c-0.13142,0.0652 -0.45946,0.01324 -0.49919,0.05298c-0.03871,0.03973 -0.11716,-0.10493 -0.18338,-0.07844c-0.0652,0.02547 -0.23635,0.19662 -0.32804,0.18338c-0.09067,-0.01324 -0.20987,-0.10493 -0.20987,-0.20987s-0.03871,-0.23635 -0.07844,-0.26284c-0.03871,-0.02547 -0.32804,-0.03973 -0.43297,-0.02547c-0.10493,0.01324 -0.43196,0.03871 -0.48595,0.09169c-0.05298,0.05298 -0.19662,0.09169 -0.28831,0.09169s-0.17013,-0.09169 -0.36675,-0.11818c-0.1956,-0.02649 -0.62858,-0.03973 -0.68155,-0.02649s-0.22209,-0.02547 -0.15791,-0.07844c0.06622,-0.05196 0.26182,-0.22311 0.14568,-0.30054c-0.1192,-0.07946 -0.38204,-0.07946 -0.49818,-0.09169c-0.1192,-0.01324 -0.23635,-0.03973 -0.42075,-0.01324c-0.1844,0.02649 -0.22311,0.11818 -0.30155,0.03973c-0.07844,-0.07844 0.19662,0.03973 -0.07844,-0.07844c-0.27507,-0.11818 -0.40649,-0.10493 -0.48595,-0.0652c-0.07844,0.03973 0.01324,0.02547 -0.1956,0.10493c-0.20987,0.07946 -0.32804,0.11818 -0.38102,0.13142c-0.05196,0.01223 -0.37898,-0.06622 -0.41871,-0.09271c-0.03871,-0.02547 -0.1844,0.01324 -0.3148,0.0652s-0.22718,0.1304 -0.35759,0.10493c-0.13142,-0.02751 -0.34129,-0.02751 -0.47271,0.02547c-0.13142,0.05196 -0.22311,0.05196 -0.35351,0.14365c-0.13244,0.09169 -0.38,0.14466 -0.38,0.14466s-0.06214,-0.00306 -0.13753,-0.00713c2.06401,-1.79302 4.75049,-2.88819 7.6937,-2.88819c6.48035,0 11.75042,5.27006 11.75042,11.75042s-5.27108,11.7494 -11.75042,11.7494zm-1.13287,-7.75585c0,0 0.21088,-0.02649 0.21088,-0.1192c0,-0.09067 -0.21088,-0.20885 -0.28729,-0.10391c-0.07946,0.10391 -0.22311,0.20885 -0.21088,0.30155c0.01936,0.14365 0.28729,-0.07844 0.28729,-0.07844zm-0.01324,-2.95136c-0.1844,0.23737 -0.17013,0.18541 -0.30155,0.1304c-0.1304,-0.05094 -0.34027,0.11818 -0.30155,0.18541c0.03973,0.0652 0.32804,-0.01426 0.39324,0.10391c0.06622,0.11818 0.06622,0.13142 0.19662,0.10595c0.1304,-0.02649 0.26182,-0.20885 0.22311,-0.30054c-0.03871,-0.09475 -0.20987,-0.22515 -0.20987,-0.22515zm-0.03871,1.24493c-0.05196,0 -0.41973,0.0652 -0.45946,0.08048c-0.03973,0.01324 -0.27507,-0.02547 -0.27507,-0.02547c-0.09169,0.09067 -0.02649,0.18236 0.11818,0.16911s0.44622,-0.05298 0.51142,-0.05298c0.06622,0 0.15689,-0.17115 0.10493,-0.17115zm-0.56338,-3.64412c-0.19357,0.03056 -0.31378,0.44622 -0.15791,0.43297c0.15791,-0.01223 0.32804,-0.45844 0.15791,-0.43297zm0.45844,2.33399c-0.05298,-0.0652 -0.1844,-0.27608 -0.32906,-0.22311c-0.04279,0.01732 -0.15587,0.2496 -0.01223,0.2496c0.14466,0 0.39426,0.03871 0.34129,-0.02649zm0.11818,-0.15689c0.23635,-0.01324 0.17013,-0.2496 -0.01324,-0.26182c-0.05196,-0.00408 -0.22311,0.27507 0.01324,0.26182zm2.79243,2.16283c-0.19662,-0.03973 -0.24858,-0.10391 -0.45844,-0.20885c-0.21088,-0.10493 -0.68257,-0.10493 -0.6948,-0.03973c-0.01426,0.0652 0,0 -0.15791,-0.05094c-0.15587,-0.05501 -0.27608,0 -0.3148,-0.09271c-0.03871,-0.09271 -0.1304,-0.1192 -0.24858,-0.00204c-0.09882,0.09882 -0.14466,0.10595 0.07946,0.14568c0.22209,0.03973 0.28831,0.03973 0.1956,0.14365c-0.09169,0.10595 -0.15689,0.23737 -0.07844,0.24858c0.07844,0.01528 0.3148,-0.05094 0.34027,0c0.02649,0.05501 -0.05196,0.0652 0.21088,0.10697c0.26284,0.03769 0.3148,0.1304 0.36574,0.18134c0.05196,0.05298 0.20987,0.22413 0.10595,0.22413c-0.10595,0 -0.22311,0.1304 -0.14466,0.14568c0.07844,0.01324 0.3148,-0.03973 0.32702,0c0.01426,0.03769 0.14568,0.28831 0.27608,0.27608c0.13142,-0.01324 0.20987,-0.24858 0.27507,-0.31582c0.06622,-0.0652 0.32804,-0.10595 0.35555,0.01223c0.02649,0.11818 0.10595,0.23737 0.26182,0.31684c0.15689,0.07743 0.34129,0.15689 0.35453,0.09067c0.01324,-0.0652 -0.07844,-0.3148 -0.1844,-0.35249c-0.10493,-0.04177 -0.28729,-0.26386 -0.28729,-0.35453c0,-0.09271 -0.15791,-0.1192 -0.23635,-0.18541c-0.07946,-0.06622 -0.14568,-0.2496 -0.3423,-0.28933zm-9.72817,-1.94074c-0.08558,0.03769 -0.15791,0.48493 0,0.53689c0.15689,0.05298 0.24858,-0.20885 0.19662,-0.27608c-0.05298,-0.06214 -0.07844,-0.31174 -0.19662,-0.2608zm7.52561,1.11453c-0.12021,-0.05094 -0.34129,0.43196 -0.1844,0.47169c0.15791,0.04075 0.27507,-0.43196 0.1844,-0.47169zm0.26284,-4.49682c0.07844,0 0.18338,-0.05196 0.18338,-0.19662c0,-0.14466 0.18338,0 0.27507,-0.01324s0.14365,-0.10493 0.18338,-0.20987c0.00509,-0.01324 0.00815,-0.02139 0.00917,-0.02751c-0.00306,0.02445 -0.00102,0.09475 0.09678,0.1192c0.15689,0.03871 0.20885,-0.0652 0.20885,-0.10493s0.28831,-0.10493 0.3423,-0.14466c0.05196,-0.03871 0.26284,-0.10493 0.27507,-0.15689c0.01324,-0.05196 0,-0.35453 0.0652,-0.38c0.0652,-0.02649 0.15689,-0.02649 0.05298,-0.20987c-0.10595,-0.1844 -0.10595,-0.35453 -0.23635,-0.27608c-0.09678,0.05807 -0.03871,0.28933 -0.11716,0.44622s-0.14466,0.30155 -0.19662,0.30155s-0.32702,0.10493 -0.40649,0.18338c-0.07743,0.07844 -0.45844,-0.0652 -0.5104,0c-0.05298,0.0652 -0.15689,0.14365 -0.22311,0.19662c-0.06622,0.05196 -0.2496,0.01324 -0.21088,0.17013c0.03668,0.15893 0.12938,0.30257 0.20885,0.30257zm1.79506,-1.6779c0.18338,-0.01324 0.35453,-0.0652 0.35453,-0.0652s0.27608,0.01324 0.23635,-0.11818c-0.04075,-0.1304 -0.32804,-0.14365 -0.38204,-0.1304c-0.05196,0.01324 -0.14466,-0.14466 -0.24858,-0.11818c-0.0978,0.02343 -0.1304,0.15791 -0.1304,0.19662c0,0.03973 -0.36675,0.11716 -0.2496,0.22311c0.11818,0.10391 0.23737,0.02547 0.41973,0.01223zm-3.6054,7.13338c0.10595,0.0652 0.30155,-0.22311 0.35555,-0.13244c0.05196,0.09271 -0.01324,0.13244 0.07743,0.25062c0.09271,0.11614 0.26284,0.10391 0.26284,0.10391s-0.01324,-0.3148 -0.15791,-0.39426c-0.14466,-0.07844 -0.23635,-0.16911 -0.0652,-0.14365c0.17013,0.02649 0.26182,-0.03973 0.22311,-0.11614c-0.03973,-0.07946 -0.28831,-0.03973 -0.36777,-0.02649s-0.19662,-0.05298 -0.19662,-0.05298c-0.07844,0.02445 -0.06418,0.09067 -0.09169,0.22311c-0.02649,0.12938 -0.14466,0.22107 -0.03973,0.28831zm7.14561,2.60803c-0.23533,-0.05298 -0.07844,0.03973 0,0.15689c0.07844,0.11818 0.23635,0.1793 0.26284,0.05094c0.01121,-0.06418 -0.02751,-0.15485 -0.26284,-0.20783zm1.00959,3.18465c-0.07844,0.0652 0,0.09271 -0.22311,0.22413c-0.22413,0.13244 -0.49919,0.27608 -0.55115,0.39324c-0.05298,0.11818 0.05196,0.1844 0.26284,0.1956c0.20987,0.01324 0.15689,0.05399 0.30155,-0.10493s0.27608,-0.24858 0.44622,-0.38c0.17115,-0.1304 0.17115,-0.32804 0.17115,-0.32804s-0.1844,-0.18134 -0.19662,-0.14365c-0.02241,0.06316 -0.13244,0.07946 -0.21088,0.14365zm-3.475,-3.18465c0.01426,-0.11818 -0.22311,-0.11818 -0.34027,-0.21088c-0.11818,-0.09067 -0.1304,-0.36574 -0.19662,-0.52466c-0.0652,-0.15587 -0.1956,-0.26182 -0.32804,-0.40445c-0.1304,-0.14568 -0.1956,-0.47373 -0.23432,-0.44622c-0.03973,0.02547 -0.15689,0.40649 -0.0652,0.52466c0.09169,0.11818 -0.03973,0.35453 -0.10493,0.51244c-0.06622,0.15587 -0.22413,-0.02649 -0.35555,-0.10595c-0.13142,-0.07946 -0.31378,-0.1304 -0.40547,-0.22311c-0.09169,-0.09271 0.15791,-0.34129 0.09271,-0.43399c-0.06622,-0.09169 -0.41973,-0.01324 -0.45844,-0.01324c-0.03973,0 -0.11818,-0.1304 -0.19764,-0.1304c-0.07844,0 -0.0652,0.26284 -0.0652,0.26284s-0.07946,-0.09271 -0.19662,-0.21088c-0.1192,-0.11716 0.01223,0.07844 -0.10493,0.19662c-0.1192,0.1192 -0.08048,0.07946 -0.13142,0.20987c-0.05196,0.13142 -0.17013,0.07844 -0.28831,-0.05298c-0.11818,-0.1304 -0.18236,-0.03769 -0.26284,0c-0.07844,0.03973 -0.14365,0.26386 -0.18338,0.3148c-0.03973,0.05298 -0.3148,0.1192 -0.38102,0.18541c-0.0652,0.06316 -0.09169,0.27507 -0.09169,0.32804c0,0.05094 -0.27608,0.02343 -0.36777,0.09067c-0.09169,0.0652 -0.23432,0.02547 -0.32702,0.02547c-0.09169,0 -0.40649,0.24858 -0.51142,0.31378c-0.10493,0.06724 -0.10493,0.30359 -0.05196,0.36879c0.05196,0.06418 0.15689,0.22311 0.09169,0.24858c-0.0652,0.02649 -0.10595,0.20987 0.05196,0.36574c0.15689,0.15791 0.10493,0.19764 0.11716,0.27608c0.01426,0.07844 0.07946,0.10595 0.1844,0.23635c0.10391,0.1304 -0.1844,0.23533 -0.22311,0.31582c-0.03973,0.07743 0.09271,0.1956 0.17013,0.26182c0.07844,0.06418 0.27608,0.02649 0.39324,-0.01324c0.1192,-0.03973 0.2496,-0.14568 0.32702,-0.15791c0.08048,-0.01324 0.44622,-0.02649 0.44622,-0.02649s0.13142,-0.1956 0.22311,-0.30155c0.09067,-0.10391 0.37898,-0.01324 0.37898,-0.01324s0.1192,-0.07743 0.43399,-0.14365c0.3148,-0.06622 0.18236,0.0652 0.30155,0.10595c0.11716,0.03769 0.27507,0.06316 0.36574,0.1304c0.09169,0.0652 0,0.22209 -0.01223,0.28831c-0.01426,0.0652 0.22311,0.03871 0.23432,-0.02649c0.01426,-0.0652 0.07844,-0.1304 0.21088,-0.20885c0.1304,-0.07946 0.02547,0.11614 0.07743,0.23533c0.05298,0.11818 0.13142,-0.15995 0.13142,-0.02649c0,0.03973 0.03973,0.07946 0.05196,0.11818c0.01426,0.03973 0.1844,0.05298 0.1844,0.18338c0,0.13244 0,0.21088 0.03973,0.23533c0.03871,0.02649 0.24858,0 0.34129,0.15791c0.09067,0.15689 0.15689,0.01324 0.20885,-0.05298c0.05298,-0.0652 0.23533,0.02649 0.28831,0.07946c0.05298,0.05094 0.19662,-0.10595 0.39426,-0.15791c0.1956,-0.05196 0.17013,-0.03973 0.22311,-0.11716c0.05196,-0.07946 0.09169,-0.28831 0.20885,-0.44622c0.11716,-0.15587 0.27608,-0.43196 0.27608,-0.64284c0,-0.20987 -0.01426,-0.6948 -0.15791,-0.91587c-0.14365,-0.22311 -0.41769,-0.44724 -0.40547,-0.56439zm-0.48391,3.21114c-0.06622,-0.01324 -0.21088,-0.06316 -0.21088,-0.06316c-0.14466,0.14365 0.14466,0.14365 0.10595,0.28831c-0.03973,0.14365 0.19662,0.09067 0.26182,0.0652c0.06418,-0.02751 0.22413,-0.32906 0.19662,-0.40649c-0.02547,-0.08048 -0.28831,0.12938 -0.35351,0.11614zm4.86358,-0.60311c-0.05298,0 -0.07844,0.0652 -0.1956,0c-0.1192,-0.06418 -0.09271,-0.03769 -0.17115,-0.17013c-0.07844,-0.12938 -0.09271,-0.30155 -0.22311,-0.23432c-0.05196,0.02547 0,0.17115 0.05196,0.22209c0.05399,0.05298 0.07844,0.23533 0.0652,0.28831c-0.01223,0.05298 -0.23533,0.11818 -0.13142,0.18338c0.10595,0.0652 0.30257,0 0.27608,0.07946c-0.02547,0.07844 -0.13142,0.18236 -0.01324,0.20885c0.11716,0.02547 0.15689,-0.09067 0.21088,-0.18134c0.05196,-0.09475 0.09067,-0.17217 0.18236,-0.22515c0.09169,-0.05298 0,-0.17115 -0.05196,-0.17115zm0.01223,-3.05425c0.17115,0.0652 0.47271,-0.23533 0.35351,-0.27507c-0.11716,-0.03973 -0.35351,0.27507 -0.35351,0.27507zm-9.05885,-1.2979c-0.02954,0.11716 0.19662,0.17013 0.20987,0.03973c0.01223,-0.13142 -0.18338,-0.14466 -0.20987,-0.03973zm0.35351,-3.50047c-0.0652,0.06622 -0.26182,0.19662 -0.28831,0.31582c-0.02547,0.11716 0.3148,-0.18541 0.40649,-0.30155c0.09271,-0.1192 0.27507,-0.05298 0.31378,-0.1192c0.04075,-0.06418 0.04075,-0.06418 0.04075,-0.06418s-0.14466,-0.02547 -0.26182,-0.06418c-0.1192,-0.03973 -0.26284,0.10391 -0.19662,-0.10595c0.0652,-0.20987 0.26182,-0.17013 0.22311,-0.32804c-0.03973,-0.15689 -0.17115,-0.19662 -0.21088,-0.19662c-0.09169,0 0.01324,0.14365 -0.11818,0.23533c-0.1304,0.09169 -0.27608,0.1304 -0.19662,0.28831c0.07844,0.15689 0.35351,0.27405 0.28831,0.34027zm-1.03506,3.34256c0.01324,-0.07743 -0.14466,-0.1956 -0.20987,-0.1956c-0.06622,0 -0.39324,-0.07844 -0.39324,-0.07844c-0.05909,0.02343 -0.13753,0.04584 -0.16096,0.07844c-0.00713,-0.01121 -0.02241,-0.02445 -0.04992,-0.03973c-0.14466,-0.07641 -0.3148,0 -0.36777,-0.10391c-0.05094,-0.10595 -0.12938,-0.10595 -0.18236,-0.03973c-0.09576,0.1192 0.02547,0.20987 0.06418,0.23533c0.03871,0.02445 0.1844,0.05298 0.3148,0.03973c0.0815,-0.00815 0.1844,-0.02751 0.21394,-0.06011c0.00408,0.01426 0.0163,0.02751 0.03566,0.04483c0.10493,0.09373 0.17013,0.13244 0.32702,0.11818c0.15893,-0.01019 0.39528,0.08048 0.40852,0.00102zm-0.38,-0.77324c0.06622,0 0.19662,0 0.28831,0.02649c0.09169,0.02547 0.39324,0.05094 0.38,-0.0652c-0.01324,-0.11716 -0.03871,-0.30257 0.09067,-0.41871c0.13244,-0.1192 0.26182,-0.18338 0.19662,-0.35453c-0.06418,-0.17013 -0.19662,-0.27608 -0.10493,-0.35555c0.09169,-0.07743 0.1956,-0.10391 0.1956,-0.16911c0,-0.06622 -0.22107,0.18338 -0.24858,-0.25062c-0.00509,-0.09271 -0.20987,0.02547 -0.22311,0.11818c-0.01223,0.09271 0.14466,0.17013 -0.10493,0.17013c-0.2496,0 -0.26182,0.19764 -0.3148,0.23635c-0.05298,0.03973 -0.10493,0.05196 -0.21088,0.07743c-0.10391,0.02649 -0.12938,0.13244 -0.15587,0.19764c-0.02547,0.06418 -0.20987,-0.11818 -0.26182,-0.0652c-0.05196,0.05298 -0.01324,0.30155 0.07844,0.5104c0.09373,0.21088 0.32906,0.3423 0.39528,0.3423zm-0.91892,-0.0652c0.06622,-0.07844 0.03871,-0.1956 -0.06418,-0.18338c-0.10493,0.01324 -0.19662,-0.17115 -0.36675,-0.28831c-0.17115,-0.11614 -0.30155,-0.19764 -0.45946,-0.36675c-0.15689,-0.17013 -0.35351,-0.27608 -0.45844,-0.36574c-0.10595,-0.09271 -0.26182,-0.13244 -0.32804,-0.11818c-0.16198,0.0326 0.23533,0.3148 0.27608,0.35249c0.03973,0.04177 0.39426,0.34129 0.39426,0.48697s0.23533,0.48493 0.30155,0.53689c0.0652,0.05298 0.39222,0.24858 0.4452,0.35453c0.05298,0.10493 0.17013,0.13244 0.17013,-0.01324c-0.00102,-0.14466 0.02547,-0.31582 0.08965,-0.39528zm-0.99533,-1.48128c0.0652,0.23635 0.19662,0.47271 0.24858,0.56541c0.05298,0.09067 0.27608,0.22107 0.35453,0.28627c0.07844,0.0652 0.1956,-0.02445 0.14568,-0.10391c-0.05298,-0.07946 -0.15791,-0.1956 -0.17013,-0.28831c-0.01324,-0.09271 -0.07946,-0.23737 -0.1844,-0.39426c-0.10391,-0.15587 -0.1956,-0.1956 -0.26182,-0.30054c-0.0652,-0.10595 -0.30155,-0.30257 -0.30155,-0.30257c-0.10391,0.01324 -0.10391,0.20885 -0.05196,0.27608c0.04992,0.06418 0.15587,0.02649 0.22107,0.26182z" stroke-width="0.1" fill="#fff"/>
 </g>

</svg>