<svg width="800" height="800" xmlns="http://www.w3.org/2000/svg">
 <g>
  <title>Layer 1</title>
  <text fill="#000000" stroke="#000" stroke-width="0" x="21.70095" y="22.86506" id="svg_8" font-size="24" font-family="Noto Sans JP" text-anchor="start" xml:space="preserve"/>
  <path stroke="#000" id="svg_2" d="m399.58245,4.43249c-218.15502,0 -395.00001,177.40462 -395.00001,396.25c0,218.84538 176.84499,396.25 395.00001,396.25c218.15502,0 395.00001,-177.40462 395.00001,-396.25c0,-218.84538 -176.84499,-396.25 -395.00001,-396.25zm-210.59963,163.96364c3.31567,1.4995 6.9303,2.83542 7.60974,3.73512c1.05993,1.39045 2.44599,5.61631 0.70662,6.65233c-1.76655,1.06328 -4.53867,0.70886 -4.91916,-2.45373c-0.35331,-3.13532 -0.70662,-3.48975 -4.89198,-4.90746c-0.59791,-0.19085 -0.95122,-0.27264 -1.38606,-0.40895c0.95122,-0.87244 1.92961,-1.74487 2.88083,-2.61731zm-14.07802,13.46825c0.84251,2.37194 3.07107,3.40796 0,4.63482c-1.63066,0.65433 -3.31567,0.76338 -4.72891,0.57254c1.5763,-1.71761 3.07107,-3.54428 4.72891,-5.20736zm224.67766,533.24987c-172.87705,0 -313.46705,-141.0349 -313.46705,-314.43176c0,-2.31741 0.29895,-4.58029 0.35331,-6.92497c0.10871,-0.08179 0.21742,-0.16358 0.32613,-0.24537c3.50592,-2.78089 7.69128,-9.78765 9.07734,-12.26865c1.41324,-2.42647 4.91916,-4.1986 3.15261,-6.9795c-1.60348,-2.61731 -7.93587,-6.27064 -11.0613,-7.11581c0.27178,-2.6991 0.86968,-5.31641 1.22299,-8.01552c1.71219,2.0993 3.72334,4.63482 5.65295,5.28915c3.12543,1.03602 13.616,1.41771 15.38255,1.41771c1.71219,0 9.07734,0.38169 10.49057,-1.74487c1.38606,-2.0993 2.44599,-2.0993 4.18536,-2.0993c1.73937,0 4.89198,6.2979 7.36514,7.00676c2.41881,0.70886 6.98466,0.35443 6.63135,4.93472c-0.32613,4.52577 2.09268,8.42447 4.53867,8.75163c2.44599,0.35443 8.04459,-5.28915 8.04459,-5.28915s0,8.7789 -0.32613,11.94148c-0.35331,3.10806 3.83205,14.72237 3.83205,14.72237s5.24529,10.82367 6.63135,13.30466c1.41324,2.45373 7.33797,9.81492 7.33797,12.9775c0,3.18985 0.70662,8.09731 2.82648,8.09731s4.21254,-5.61631 6.63135,-9.13333c2.47317,-3.48975 3.17979,-8.45173 4.21254,-11.94148c1.05993,-3.51701 1.05993,-9.81492 1.05993,-12.26865c0,-2.48099 2.0655,-4.58029 6.98466,-6.6796c4.91916,-2.0993 8.39789,-8.07004 12.58325,-11.23263c4.21254,-3.16258 3.85923,-8.42447 12.2843,-8.42447c8.37072,0 7.6641,0 9.78396,-2.12657c2.09268,-2.0993 4.18536,-3.48975 5.21811,0.35443c1.05993,3.87144 6.98466,9.46049 8.04459,10.8782c1.05993,1.41771 3.15261,5.26189 2.82648,9.48775c-0.35331,4.17134 0.32613,9.10606 2.09268,9.10606c1.73937,0 5.24529,-5.97074 5.24529,-5.97074s7.69128,-5.23462 7.33797,0.38169c-0.38049,5.58905 0.67944,11.58705 0.67944,15.04954c0,3.54428 6.30522,11.94148 6.30522,9.86944c0,-2.15383 2.7993,-8.07004 2.7993,-11.25989c0,-3.10806 1.73937,-1.71761 6.27804,1.39045c4.53867,3.16258 7.69128,9.51502 7.69128,9.51502s4.56585,4.1986 5.24529,5.97074c0.70662,1.74487 5.5986,-0.68159 6.63135,-2.83542c1.05993,-2.07204 1.76655,-3.13532 4.53867,-3.84418c2.82648,-0.70886 6.27804,-0.70886 7.36514,-4.58029c1.05993,-3.87144 4.18536,-8.39721 0,-13.68636c-4.18536,-5.26189 -6.30522,-8.75163 -9.43065,-11.23263c-3.17979,-2.45373 -5.5986,-8.7789 -5.5986,-8.7789s6.63135,-5.94348 8.72403,-8.07004c2.14703,-2.0993 5.24529,-0.68159 5.62577,1.74487c0.35331,2.48099 -3.12543,4.58029 -3.83205,9.84218c-0.70662,5.23462 4.18536,7.00676 5.5986,5.23462c1.38606,-1.77214 4.89198,-5.97074 4.89198,-7.00676c0,-1.06328 -2.41881,-0.70886 -2.77212,-4.55303c-0.35331,-3.87144 4.51149,-6.6796 6.25086,-5.64358c1.79373,1.06328 12.96374,-1.39045 18.20903,-4.1986s8.37072,-8.7789 11.5505,-11.23263c3.15261,-2.42647 13.99649,-10.52377 13.28987,-14.36795c-0.70662,-3.87144 0.32613,-9.10606 -2.44599,-14.04078c-2.7993,-4.90746 -6.30522,-8.04278 -7.69128,-10.16934c-1.38606,-2.0993 5.95191,-2.45373 9.43065,-5.61631c3.50592,-3.16258 0,-5.97074 -1.73937,-5.61631c-1.73937,0.35443 -6.30522,1.41771 -8.04459,1.06328c-1.73937,-0.35443 -2.7993,-2.0993 -5.5986,-4.22587c-2.77212,-2.0993 0.70662,-5.23462 2.47317,-4.88019c1.73937,0.35443 6.25086,-3.51701 8.37072,-5.26189c2.09268,-1.74487 5.24529,-3.13532 4.18536,-1.39045c-1.03275,1.74487 -3.47874,8.07004 -0.70662,8.42447c2.82648,0.35443 9.45782,-5.26189 10.54493,-4.90746c1.03275,0.35443 2.77212,4.90746 1.73937,7.00676c-1.05993,2.0993 -1.05993,5.61631 0.35331,5.26189c1.38606,-0.35443 4.18536,-3.51701 4.89198,-2.45373c0.7338,1.06328 4.18536,3.16258 2.44599,7.00676c-1.71219,3.87144 -5.24529,5.26189 -1.05993,7.74288c4.18536,2.42647 5.5986,0.32716 8.7512,-1.41771c3.12543,-1.74487 5.24529,-9.46049 3.47874,-11.94148c-1.73937,-2.45373 -5.92473,-7.36119 -5.92473,-9.10606c0,-1.74487 6.98466,-1.74487 6.98466,-4.55303s2.44599,-4.90746 4.89198,-5.97074c2.47317,-1.06328 5.5986,-5.61631 6.63135,-4.1986c1.05993,1.41771 7.36514,3.16258 9.07734,1.06328c1.73937,-2.0993 10.87106,-9.81492 16.44248,-14.04078c5.5986,-4.1986 7.69128,-9.10606 9.13169,-14.04078c1.38606,-4.90746 3.47874,-8.07004 2.77212,-11.91422l0,0c2.09268,4.90746 2.44599,8.42447 2.09268,12.26865c-0.35331,3.87144 0,11.94148 0.70662,12.9775c0.67944,1.06328 3.50592,3.48975 5.21811,2.80816c1.73937,-0.68159 -0.67944,-7.71562 -0.67944,-9.10606c0,-1.41771 2.44599,-3.51701 3.85923,-3.87144c1.41324,-0.35443 0,-6.2979 -1.76655,-8.7789c-1.71219,-2.45373 -4.18536,-3.87144 -2.77212,-4.1986c1.38606,-0.35443 3.12543,-3.16258 2.09268,-3.87144c-1.05993,-0.68159 -0.38049,-3.16258 -2.7993,-2.45373c-1.76655,0.51801 -6.54981,-0.40895 -6.38675,2.59005c-1.00557,-2.999 -3.15261,-4.98925 -5.87037,-4.68935c-3.15261,0.35443 -4.91916,2.0993 -8.04459,2.0993s-0.67944,-4.90746 -2.09268,-4.90746c-1.38606,0 -4.56585,4.55303 -6.27804,2.0993c-1.73937,-2.45373 4.89198,-5.61631 10.13726,-7.36119c5.21811,-1.74487 13.96931,-11.94148 17.50241,-12.29591c3.47874,-0.35443 12.22994,0.70886 19.92122,0.35443c7.69128,-0.35443 10.13726,-3.51701 12.58325,-1.74487s7.69128,3.87144 10.84388,3.51701c3.15261,-0.38169 1.73937,0 6.63135,-3.51701c4.89198,-3.51701 9.45782,-5.26189 11.90381,-8.07004c2.44599,-2.80816 9.10451,-4.90746 9.45782,-2.0993c0.38049,2.80816 -0.70662,5.61631 2.09268,5.61631s7.01183,-2.80816 10.49057,-4.1986c3.50592,-1.39045 6.27804,-3.16258 6.27804,-3.16258s-14.32262,9.81492 -17.80136,11.94148c-3.50592,2.0993 -11.90381,3.51701 -15.40973,7.71562c-3.47874,4.22587 -5.57142,5.61631 -5.21811,10.19661c0.38049,4.55303 6.27804,10.52377 3.47874,14.72237c-2.7993,4.1986 -3.83205,10.16934 -3.83205,10.16934s4.18536,-5.97074 10.13726,-9.81492s9.45782,-9.10606 11.5505,-11.23263s8.39789,-2.48099 8.39789,-4.93472s1.73937,-5.61631 2.82648,-8.42447c1.03275,-2.80816 -2.09268,-2.12657 0,-5.61631c2.0655,-3.51701 1.73937,-6.32517 12.22994,-6.32517s6.98466,0.70886 15.38255,0.35443c8.39789,-0.35443 11.52332,-4.55303 19.56791,-6.6796c8.04459,-2.0993 14.32262,-3.48975 16.79579,-2.42647c2.44599,1.03602 6.30522,0.32716 3.83205,-2.12657c-2.41881,-2.45373 -8.01741,-5.97074 -5.24529,-6.6796c2.82648,-0.70886 5.62577,-1.06328 6.6857,-3.87144c1.05993,-2.80816 -3.85923,-7.71562 -1.05993,-10.52377c2.82648,-2.80816 -2.09268,-6.2979 -5.62577,-7.00676c-3.47874,-0.68159 -17.12192,0.70886 -19.86686,-0.68159c-2.82648,-1.41771 -7.36514,-3.16258 -8.7512,-2.12657c-1.41324,1.06328 -4.56585,6.6796 -4.56585,6.6796s-2.44599,0.68159 -4.56585,-2.45373c-2.0655,-3.16258 -13.58883,-2.80816 -17.09474,-2.80816s-7.36514,0.68159 -11.22437,1.06328c-3.83205,0.35443 -5.95191,1.41771 -8.7512,-1.06328c-2.77212,-2.45373 -6.60417,-3.51701 -8.04459,-4.55303c-1.38606,-1.06328 -9.07734,-1.06328 -15.02924,-0.32716c-5.92473,0.68159 -11.90381,0.68159 -11.90381,0.68159s-2.82648,-1.06328 -6.98466,-3.51701c-4.18536,-2.45373 -8.39789,-4.1986 -9.81113,-4.1986c-1.38606,0 -12.20277,1.74487 -14.64875,0c-2.47317,-1.74487 -4.91916,-2.80816 -6.65852,-2.80816s-3.12543,-2.80816 -1.03275,-2.80816s11.87663,-2.80816 11.87663,-2.80816s-2.7993,-3.87144 -6.27804,-3.87144c-3.47874,0 -9.75678,-1.74487 -11.52332,-1.74487s-0.38049,1.74487 -3.85923,1.06328c-3.53309,-0.70886 -7.01183,-2.12657 -9.10451,-0.70886c-2.0655,1.39045 -7.01183,3.48975 -1.73937,4.90746c5.24529,1.41771 10.13726,0 11.5505,2.12657c1.41324,2.0993 0,3.13532 0,4.55303s-2.7993,5.26189 -4.53867,5.97074c-1.73937,0.68159 -3.8864,-1.06328 -7.33797,0.68159c-3.50592,1.74487 -12.25712,0.35443 -13.31705,1.41771c-1.03275,1.06328 -3.12543,-2.80816 -4.89198,-2.0993c-1.73937,0.68159 -6.30522,5.26189 -8.7512,4.90746c-2.41881,-0.35443 -5.5986,-2.80816 -5.5986,-5.61631s-1.03275,-6.32517 -2.09268,-7.03402c-1.03275,-0.68159 -8.7512,-1.06328 -11.5505,-0.68159c-2.7993,0.35443 -11.52332,1.03602 -12.96374,2.45373c-1.41324,1.41771 -5.24529,2.45373 -7.69128,2.45373s-4.53867,-2.45373 -9.78396,-3.16258c-5.21811,-0.70886 -16.76861,-1.06328 -18.18185,-0.70886s-5.92473,-0.68159 -4.21254,-2.0993c1.76655,-1.39045 6.98466,-5.97074 3.8864,-8.04278c-3.17979,-2.12657 -10.19162,-2.12657 -13.28987,-2.45373c-3.17979,-0.35443 -6.30522,-1.06328 -11.22437,-0.35443c-4.91916,0.70886 -5.95191,3.16258 -8.04459,1.06328c-2.09268,-2.0993 5.24529,1.06328 -2.09268,-2.0993c-7.33797,-3.16258 -10.84388,-2.80816 -12.96374,-1.74487c-2.09268,1.06328 0.35331,0.68159 -5.21811,2.80816c-5.5986,2.12657 -8.7512,3.16258 -10.16444,3.51701c-1.38606,0.32716 -10.11009,-1.77214 -11.17002,-2.48099c-1.03275,-0.68159 -4.91916,0.35443 -8.39789,1.74487s-6.06062,3.48975 -9.53936,2.80816c-3.50592,-0.73612 -9.10451,-0.73612 -12.61043,0.68159c-3.50592,1.39045 -5.95191,1.39045 -9.43065,3.84418c-3.53309,2.45373 -10.13726,3.87144 -10.13726,3.87144s-1.65784,-0.08179 -3.66898,-0.19085c55.06192,-47.98404 126.7294,-77.29247 205.24563,-77.29247c172.87705,0 313.46705,141.0349 313.46705,314.45902s-140.61718,314.43176 -313.46705,314.43176zm-30.22155,-207.55822c0,0 5.62577,-0.70886 5.62577,-3.18985c0,-2.42647 -5.62577,-5.58905 -7.6641,-2.78089c-2.11986,2.78089 -5.95191,5.58905 -5.62577,8.07004c0.51638,3.84418 7.6641,-2.0993 7.6641,-2.0993zm-0.35331,-78.98282c-4.91916,6.35243 -4.53867,4.96199 -8.04459,3.48975c-3.47874,-1.36318 -9.07734,3.16258 -8.04459,4.96199c1.05993,1.74487 8.7512,-0.38169 10.49057,2.78089c1.76655,3.16258 1.76655,3.51701 5.24529,2.83542c3.47874,-0.70886 6.98466,-5.58905 5.95191,-8.04278c-1.03275,-2.53552 -5.5986,-6.02527 -5.5986,-6.02527zm-1.03275,33.31619c-1.38606,0 -11.19719,1.74487 -12.25712,2.15383c-1.05993,0.35443 -7.33797,-0.68159 -7.33797,-0.68159c-2.44599,2.42647 -0.70662,4.88019 3.15261,4.52577s11.90381,-1.41771 13.64318,-1.41771c1.76655,0 4.18536,-4.58029 2.7993,-4.58029zm-15.02924,-97.5221c-5.16375,0.81791 -8.37072,11.94148 -4.21254,11.58705c4.21254,-0.32716 8.7512,-12.26865 4.21254,-11.58705zm12.22994,62.46104c-1.41324,-1.74487 -4.91916,-7.38845 -8.77838,-5.97074c-1.14146,0.46348 -4.15818,6.6796 -0.32613,6.6796c3.85923,0 10.51775,1.03602 9.10451,-0.70886zm3.15261,-4.1986c6.30522,-0.35443 4.53867,-6.6796 -0.35331,-7.00676c-1.38606,-0.10905 -5.95191,7.36119 0.35331,7.00676zm74.49395,57.88074c-5.24529,-1.06328 -6.63135,-2.78089 -12.22994,-5.58905c-5.62577,-2.80816 -18.20903,-2.80816 -18.53516,-1.06328c-0.38049,1.74487 0,0 -4.21254,-1.36318c-4.15818,-1.47224 -7.36514,0 -8.39789,-2.48099c-1.03275,-2.48099 -3.47874,-3.18985 -6.63135,-0.05453c-2.63623,2.64457 -3.85923,2.83542 2.11986,3.8987c5.92473,1.06328 7.69128,1.06328 5.21811,3.84418c-2.44599,2.83542 -4.18536,6.35243 -2.09268,6.65233c2.09268,0.40895 8.39789,-1.36318 9.07734,0c0.70662,1.47224 -1.38606,1.74487 5.62577,2.86268c7.01183,1.00876 8.39789,3.48975 9.75678,4.85293c1.38606,1.41771 5.5986,5.998 2.82648,5.998c-2.82648,0 -5.95191,3.48975 -3.85923,3.8987c2.09268,0.35443 8.39789,-1.06328 8.72403,0c0.38049,1.00876 3.8864,7.71562 7.36514,7.38845c3.50592,-0.35443 5.5986,-6.65233 7.33797,-8.45173c1.76655,-1.74487 8.7512,-2.83542 9.485,0.32716c0.70662,3.16258 2.82648,6.35243 6.98466,8.479c4.18536,2.07204 9.10451,4.1986 9.45782,2.42647c0.35331,-1.74487 -2.09268,-8.42447 -4.91916,-9.43323c-2.7993,-1.11781 -7.6641,-7.06129 -7.6641,-9.48775c0,-2.48099 -4.21254,-3.18985 -6.30522,-4.96199c-2.11986,-1.77214 -3.8864,-6.6796 -9.13169,-7.74288zm-259.51941,-51.93727c-2.28292,1.00876 -4.21254,12.9775 0,14.36795c4.18536,1.41771 6.63135,-5.58905 5.24529,-7.38845c-1.41324,-1.66308 -2.09268,-8.34268 -5.24529,-6.9795zm200.76132,29.82644c-3.20696,-1.36318 -9.10451,11.55979 -4.91916,12.62307c4.21254,1.09055 7.33797,-11.55979 4.91916,-12.62307zm7.01183,-120.34178c2.09268,0 4.89198,-1.39045 4.89198,-5.26189c0,-3.87144 4.89198,0 7.33797,-0.35443s3.83205,-2.80816 4.89198,-5.61631c0.13589,-0.35443 0.21742,-0.57254 0.2446,-0.73612c-0.08153,0.65433 -0.02718,2.53552 2.58188,3.18985c4.18536,1.03602 5.57142,-1.74487 5.57142,-2.80816s7.69128,-2.80816 9.13169,-3.87144c1.38606,-1.03602 7.01183,-2.80816 7.33797,-4.1986c0.35331,-1.39045 0,-9.48775 1.73937,-10.16934c1.73937,-0.70886 4.18536,-0.70886 1.41324,-5.61631c-2.82648,-4.93472 -2.82648,-9.48775 -6.30522,-7.38845c-2.58188,1.55403 -1.03275,7.74288 -3.12543,11.94148s-3.85923,8.07004 -5.24529,8.07004s-8.72403,2.80816 -10.84388,4.90746c-2.0655,2.0993 -12.22994,-1.74487 -13.616,0c-1.41324,1.74487 -4.18536,3.84418 -5.95191,5.26189c-1.76655,1.39045 -6.65852,0.35443 -5.62577,4.55303c0.9784,4.25313 3.45156,8.09731 5.57142,8.09731zm47.88702,-44.90324c4.89198,-0.35443 9.45782,-1.74487 9.45782,-1.74487s7.36514,0.35443 6.30522,-3.16258c-1.08711,-3.48975 -8.7512,-3.84418 -10.19162,-3.48975c-1.38606,0.35443 -3.85923,-3.87144 -6.63135,-3.16258c-2.60905,0.62706 -3.47874,4.22587 -3.47874,5.26189c0,1.06328 -9.78396,3.13532 -6.65852,5.97074c3.15261,2.78089 6.33239,0.68159 11.19719,0.32716zm-96.18171,190.90013c2.82648,1.74487 8.04459,-5.97074 9.485,-3.54428c1.38606,2.48099 -0.35331,3.54428 2.0655,6.70686c2.47317,3.10806 7.01183,2.78089 7.01183,2.78089s-0.35331,-8.42447 -4.21254,-10.55104c-3.85923,-2.0993 -6.30522,-4.52577 -1.73937,-3.84418c4.53867,0.70886 6.98466,-1.06328 5.95191,-3.10806c-1.05993,-2.12657 -7.69128,-1.06328 -9.81113,-0.70886s-5.24529,-1.41771 -5.24529,-1.41771c-2.09268,0.65433 -1.71219,2.42647 -2.44599,5.97074c-0.70662,3.46248 -3.85923,5.91621 -1.05993,7.71562zm190.62406,69.79496c-6.27804,-1.41771 -2.09268,1.06328 0,4.1986c2.09268,3.16258 6.30522,4.7984 7.01183,1.36318c0.29895,-1.71761 -0.7338,-4.14408 -7.01183,-5.56179zm26.93305,85.22619c-2.09268,1.74487 0,2.48099 -5.95191,5.998c-5.97908,3.54428 -13.31705,7.38845 -14.70311,10.52377c-1.41324,3.16258 1.38606,4.93472 7.01183,5.23462c5.5986,0.35443 4.18536,1.44497 8.04459,-2.80816s7.36514,-6.65233 11.90381,-10.16934c4.56585,-3.48975 4.56585,-8.7789 4.56585,-8.7789s-4.91916,-4.85293 -5.24529,-3.84418c-0.59791,1.69035 -3.53309,2.12657 -5.62577,3.84418zm-92.70297,-85.22619c0.38049,-3.16258 -5.95191,-3.16258 -9.07734,-5.64358c-3.15261,-2.42647 -3.47874,-9.78765 -5.24529,-14.04078c-1.73937,-4.17134 -5.21811,-7.00676 -8.7512,-10.82367c-3.47874,-3.8987 -5.21811,-12.6776 -6.25086,-11.94148c-1.05993,0.68159 -4.18536,10.8782 -1.73937,14.04078c2.44599,3.16258 -1.05993,9.48775 -2.7993,13.71362c-1.76655,4.17134 -5.97908,-0.70886 -9.485,-2.83542c-3.50592,-2.12657 -8.37072,-3.48975 -10.81671,-5.97074c-2.44599,-2.48099 4.21254,-9.13333 2.47317,-11.61432c-1.76655,-2.45373 -11.19719,-0.35443 -12.22994,-0.35443c-1.05993,0 -3.15261,-3.48975 -5.27246,-3.48975c-2.09268,0 -1.73937,7.03402 -1.73937,7.03402s-2.11986,-2.48099 -5.24529,-5.64358c-3.17979,-3.13532 0.32613,2.0993 -2.7993,5.26189c-3.17979,3.18985 -2.14703,2.12657 -3.50592,5.61631c-1.38606,3.51701 -4.53867,2.0993 -7.69128,-1.41771c-3.15261,-3.48975 -4.8648,-1.00876 -7.01183,0c-2.09268,1.06328 -3.83205,7.06129 -4.89198,8.42447c-1.05993,1.41771 -8.39789,3.18985 -10.16444,4.96199c-1.73937,1.69035 -2.44599,7.36119 -2.44599,8.7789c0,1.36318 -7.36514,0.62706 -9.81113,2.42647c-2.44599,1.74487 -6.25086,0.68159 -8.72403,0.68159c-2.44599,0 -10.84388,6.65233 -13.64318,8.39721c-2.7993,1.7994 -2.7993,8.12457 -1.38606,9.86944c1.38606,1.71761 4.18536,5.97074 2.44599,6.65233c-1.73937,0.70886 -2.82648,5.61631 1.38606,9.78765c4.18536,4.22587 2.7993,5.28915 3.12543,7.38845c0.38049,2.0993 2.11986,2.83542 4.91916,6.32517c2.77212,3.48975 -4.91916,6.2979 -5.95191,8.45173c-1.05993,2.07204 2.47317,5.23462 4.53867,7.00676c2.09268,1.71761 7.36514,0.70886 10.49057,-0.35443c3.17979,-1.06328 6.65852,-3.8987 8.72403,-4.22587c2.14703,-0.35443 11.90381,-0.70886 11.90381,-0.70886s3.50592,-5.23462 5.95191,-8.07004c2.41881,-2.78089 10.11009,-0.35443 10.11009,-0.35443s3.17979,-2.07204 11.57768,-3.84418c8.39789,-1.77214 4.8648,1.74487 8.04459,2.83542c3.12543,1.00876 7.33797,1.69035 9.75678,3.48975c2.44599,1.74487 0,5.94348 -0.32613,7.71562c-0.38049,1.74487 5.95191,1.03602 6.25086,-0.70886c0.38049,-1.74487 2.09268,-3.48975 5.62577,-5.58905c3.47874,-2.12657 0.67944,3.10806 2.0655,6.2979c1.41324,3.16258 3.50592,-4.28039 3.50592,-0.70886c0,1.06328 1.05993,2.12657 1.38606,3.16258c0.38049,1.06328 4.91916,1.41771 4.91916,4.90746c0,3.54428 0,5.64358 1.05993,6.2979c1.03275,0.70886 6.63135,0 9.10451,4.22587c2.41881,4.1986 4.18536,0.35443 5.57142,-1.41771c1.41324,-1.74487 6.27804,0.70886 7.69128,2.12657c1.41324,1.36318 5.24529,-2.83542 10.51775,-4.22587c5.21811,-1.39045 4.53867,-1.06328 5.95191,-3.13532c1.38606,-2.12657 2.44599,-7.71562 5.57142,-11.94148c3.12543,-4.17134 7.36514,-11.55979 7.36514,-17.20337c0,-5.61631 -0.38049,-18.59381 -4.21254,-24.51003c-3.83205,-5.97074 -11.14284,-11.96875 -10.81671,-15.10407zm-12.90939,85.93505c-1.76655,-0.35443 -5.62577,-1.69035 -5.62577,-1.69035c-3.85923,3.84418 3.85923,3.84418 2.82648,7.71562c-1.05993,3.84418 5.24529,2.42647 6.98466,1.74487c1.71219,-0.73612 5.97908,-8.80616 5.24529,-10.8782c-0.67944,-2.15383 -7.69128,3.46248 -9.43065,3.10806zm129.74612,-16.14009c-1.41324,0 -2.09268,1.74487 -5.21811,0c-3.17979,-1.71761 -2.47317,-1.00876 -4.56585,-4.55303c-2.09268,-3.46248 -2.47317,-8.07004 -5.95191,-6.27064c-1.38606,0.68159 0,4.58029 1.38606,5.94348c1.44042,1.41771 2.09268,6.2979 1.73937,7.71562c-0.32613,1.41771 -6.27804,3.16258 -3.50592,4.90746c2.82648,1.74487 8.07176,0 7.36514,2.12657c-0.67944,2.0993 -3.50592,4.88019 -0.35331,5.58905c3.12543,0.68159 4.18536,-2.42647 5.62577,-4.85293c1.38606,-2.53552 2.41881,-4.60756 4.8648,-6.02527c2.44599,-1.41771 0,-4.58029 -1.38606,-4.58029zm0.32613,-81.73644c4.56585,1.74487 12.61043,-6.2979 9.43065,-7.36119c-3.12543,-1.06328 -9.43065,7.36119 -9.43065,7.36119zm-241.66369,-34.7339c-0.78815,3.13532 5.24529,4.55303 5.5986,1.06328c0.32613,-3.51701 -4.89198,-3.87144 -5.5986,-1.06328zm9.43065,-93.67793c-1.73937,1.77214 -6.98466,5.26189 -7.69128,8.45173c-0.67944,3.13532 8.39789,-4.96199 10.84388,-8.07004c2.47317,-3.18985 7.33797,-1.41771 8.37072,-3.18985c1.08711,-1.71761 1.08711,-1.71761 1.08711,-1.71761s-3.85923,-0.68159 -6.98466,-1.71761c-3.17979,-1.06328 -7.01183,2.78089 -5.24529,-2.83542c1.73937,-5.61631 6.98466,-4.55303 5.95191,-8.7789c-1.05993,-4.1986 -4.56585,-5.26189 -5.62577,-5.26189c-2.44599,0 0.35331,3.84418 -3.15261,6.2979c-3.47874,2.45373 -7.36514,3.48975 -5.24529,7.71562c2.09268,4.1986 9.43065,7.33392 7.69128,9.10606zm-27.6125,89.45206c0.35331,-2.07204 -3.85923,-5.23462 -5.5986,-5.23462c-1.76655,0 -10.49057,-2.0993 -10.49057,-2.0993c-1.5763,0.62706 -3.66898,1.22686 -4.29407,2.0993c-0.19024,-0.2999 -0.59791,-0.65433 -1.3317,-1.06328c-3.85923,-2.04477 -8.39789,0 -9.81113,-2.78089c-1.35888,-2.83542 -3.45156,-2.83542 -4.8648,-1.06328c-2.5547,3.18985 0.67944,5.61631 1.71219,6.2979c1.03275,0.65433 4.91916,1.41771 8.39789,1.06328c2.17421,-0.21811 4.91916,-0.73612 5.70731,-1.60856c0.10871,0.38169 0.43484,0.73612 0.95122,1.1996c2.7993,2.50826 4.53867,3.54428 8.72403,3.16258c4.23971,-0.27264 10.54493,2.15383 10.89824,0.02726zm-10.13726,-20.69312c1.76655,0 5.24529,0 7.69128,0.70886c2.44599,0.68159 10.49057,1.36318 10.13726,-1.74487c-0.35331,-3.13532 -1.03275,-8.09731 2.41881,-11.20536c3.53309,-3.18985 6.98466,-4.90746 5.24529,-9.48775c-1.71219,-4.55303 -5.24529,-7.38845 -2.7993,-9.51502c2.44599,-2.07204 5.21811,-2.78089 5.21811,-4.52577c0,-1.77214 -5.89755,4.90746 -6.63135,-6.70686c-0.13589,-2.48099 -5.5986,0.68159 -5.95191,3.16258c-0.32613,2.48099 3.85923,4.55303 -2.7993,4.55303c-6.65852,0 -6.98466,5.28915 -8.39789,6.32517c-1.41324,1.06328 -2.7993,1.39045 -5.62577,2.07204c-2.77212,0.70886 -3.45156,3.54428 -4.15818,5.28915c-0.67944,1.71761 -5.5986,-3.16258 -6.98466,-1.74487c-1.38606,1.41771 -0.35331,8.07004 2.09268,13.65909c2.50034,5.64358 8.77838,9.16059 10.54493,9.16059zm-24.51424,-1.74487c1.76655,-2.0993 1.03275,-5.23462 -1.71219,-4.90746c-2.7993,0.35443 -5.24529,-4.58029 -9.78396,-7.71562c-4.56585,-3.10806 -8.04459,-5.28915 -12.25712,-9.81492c-4.18536,-4.55303 -9.43065,-7.38845 -12.22994,-9.78765c-2.82648,-2.48099 -6.98466,-3.54428 -8.7512,-3.16258c-4.32125,0.87244 6.27804,8.42447 7.36514,9.43323c1.05993,1.11781 10.51775,9.13333 10.51775,13.03203s6.27804,12.9775 8.04459,14.36795c1.73937,1.41771 10.4634,6.65233 11.87663,9.48775c1.41324,2.80816 4.53867,3.54428 4.53867,-0.35443c-0.02718,-3.87144 0.67944,-8.45173 2.39163,-10.5783zm-26.55257,-39.64136c1.73937,6.32517 5.24529,12.65034 6.63135,15.13133c1.41324,2.42647 7.36514,5.91621 9.45782,7.66109c2.09268,1.74487 5.21811,-0.65433 3.8864,-2.78089c-1.41324,-2.12657 -4.21254,-5.23462 -4.53867,-7.71562c-0.35331,-2.48099 -2.11986,-6.35243 -4.91916,-10.55104c-2.77212,-4.17134 -5.21811,-5.23462 -6.98466,-8.04278c-1.73937,-2.83542 -8.04459,-8.09731 -8.04459,-8.09731c-2.77212,0.35443 -2.77212,5.58905 -1.38606,7.38845c1.3317,1.71761 4.15818,0.70886 5.89755,7.00676z" stroke-width="0" fill="#0bc77c"/>
 </g>

</svg>