<svg width="800" height="800" xmlns="http://www.w3.org/2000/svg">
 <g>
  <title>Layer 1</title>
  <path stroke-width="2" stroke="#000" fill="#fff" d="m399.96192,4.7413c-216.92892,0 -392.77971,176.97007 -392.77971,395.27974c0,218.30967 175.85112,395.27974 392.77971,395.27974c216.92892,0 392.77971,-176.97007 392.77971,-395.27974c0,-218.30967 -175.85112,-395.27974 -392.77971,-395.27974zm-209.41592,163.56212c3.29703,1.49592 6.89148,2.82843 7.56702,3.72605c1.054,1.3872 2.43209,5.6025 0.70255,6.63603c-1.75655,1.0607 -4.51307,0.70702 -4.89152,-2.44757c-0.35144,-3.12775 -0.70255,-3.48109 -4.86452,-4.89548c-0.59452,-0.19026 -0.94596,-0.2718 -1.37843,-0.40804c0.94596,-0.87044 1.91893,-1.74055 2.86456,-2.61099l0.00033,0zm-13.99903,13.43513c0.83793,2.36603 3.05395,3.39955 0,4.62334c-1.62151,0.65266 -3.29703,0.76138 -4.70247,0.57112c1.56749,-1.71337 3.05395,-3.53546 4.70247,-5.19446zm223.41494,531.94408c-171.90523,0 -311.70512,-140.68971 -311.70512,-313.66193c0,-2.31167 0.29743,-4.56898 0.35144,-6.90816c0.10803,-0.08154 0.21607,-0.16308 0.32443,-0.24462c3.48609,-2.77407 7.64805,-9.76378 9.02648,-12.23853c1.40544,-2.42039 4.89152,-4.18845 3.13498,-6.96252c-1.5945,-2.61099 -7.89113,-6.25517 -10.99909,-7.09843c0.27008,-2.69253 0.86494,-5.30352 1.21605,-7.99605c1.70253,2.09423 3.70249,4.62334 5.62108,5.27634c3.10797,1.03352 13.53955,1.41438 15.2961,1.41438c1.70253,0 9.02648,0.38086 10.43158,-1.74055c1.37843,-2.09423 2.43209,-2.09423 4.16196,-2.09423c1.72954,0 4.86452,6.28235 7.32362,6.98971c2.40508,0.70702 6.9455,0.35368 6.59405,4.92266c-0.32443,4.51462 2.08098,8.40375 4.51307,8.73025c2.43209,0.35368 7.99949,-5.27634 7.99949,-5.27634s0,8.75743 -0.32443,11.91236c-0.35144,3.10057 3.81052,14.68643 3.81052,14.68643s5.21596,10.7973 6.59405,13.27205c1.40544,2.44757 7.29661,9.79096 7.29661,12.94589c0,3.18211 0.70255,8.07759 2.81054,8.07759s4.18897,-5.6025 6.59405,-9.11111c2.4591,-3.48109 3.16199,-8.43093 4.18897,-11.91236c1.054,-3.50827 1.054,-9.79096 1.054,-12.23853c0,-2.47475 2.05397,-4.56898 6.9455,-6.66321c4.89152,-2.09423 8.3506,-8.05041 12.51257,-11.205c4.18897,-3.15493 3.83753,-8.40375 12.21514,-8.40375c8.32359,0 7.62104,0 9.72903,-2.12141c2.08098,-2.09423 4.16196,-3.48109 5.18862,0.35368c1.054,3.86195 6.9455,9.43728 7.99949,10.85166c1.054,1.41438 3.13498,5.24916 2.81054,9.46446c-0.35144,4.16127 0.32443,9.08393 2.08098,9.08393c1.72954,0 5.21596,-5.95618 5.21596,-5.95618s7.64805,-5.22164 7.29661,0.38086c-0.37845,5.57532 0.67554,11.55868 0.67554,15.0126c0,3.53546 6.26962,11.91236 6.26962,9.84532c0,-2.14859 2.78353,-8.05041 2.78353,-11.23218c0,-3.10057 1.72954,-1.71337 6.24261,1.3872c4.51307,3.15493 7.64805,9.49164 7.64805,9.49164s4.54008,4.18845 5.21596,5.95618c0.70255,1.74055 5.56707,-0.67984 6.59405,-2.82843c1.054,-2.06705 1.75655,-3.12775 4.51307,-3.83477c2.81054,-0.70702 6.24261,-0.70702 7.32362,-4.56898c1.054,-3.86195 4.16196,-8.37657 0,-13.65291c-4.16196,-5.24916 -6.26962,-8.73025 -9.37759,-11.205c-3.16199,-2.44757 -5.56707,-8.75743 -5.56707,-8.75743s6.59405,-5.929 8.67504,-8.05041c2.135,-2.09423 5.21596,-0.67984 5.59408,1.74055c0.35144,2.47475 -3.10797,4.56898 -3.81052,9.81814c-0.70255,5.22164 4.16196,6.98971 5.56707,5.22164c1.37843,-1.76773 4.86452,-5.95618 4.86452,-6.98971c0,-1.0607 -2.40508,-0.70702 -2.75653,-4.5418c-0.35144,-3.86195 4.48606,-6.66321 6.2156,-5.62968c1.78356,1.0607 12.89102,-1.3872 18.10664,-4.18845s8.32359,-8.75743 11.48558,-11.205c3.13498,-2.42039 13.91767,-10.49798 13.21512,-14.33275c-0.70255,-3.86195 0.32443,-9.08393 -2.43209,-14.00626c-2.78353,-4.89548 -6.26962,-8.02323 -7.64805,-10.1443c-1.37843,-2.09423 5.91851,-2.44757 9.37759,-5.6025c3.48609,-3.15493 0,-5.95618 -1.72954,-5.6025c-1.72954,0.35368 -6.26962,1.41438 -7.99949,1.0607c-1.72954,-0.35368 -2.78353,-2.09423 -5.56707,-4.21563c-2.75653,-2.09423 0.70255,-5.22164 2.4591,-4.8683c1.72954,0.35368 6.2156,-3.50827 8.32359,-5.24916c2.08098,-1.74055 5.21596,-3.12775 4.16196,-1.3872c-1.02699,1.74055 -3.45908,8.05041 -0.70255,8.40375c2.81054,0.35368 9.4046,-5.24916 10.4856,-4.89548c1.02699,0.35368 2.75653,4.89548 1.72954,6.98971c-1.054,2.09423 -1.054,5.6025 0.35144,5.24916c1.37843,-0.35368 4.16196,-3.50827 4.86452,-2.44757c0.72956,1.0607 4.16196,3.15493 2.43209,6.98971c-1.70253,3.86195 -5.21596,5.24916 -1.054,7.72391c4.16196,2.42039 5.56707,0.3265 8.70204,-1.41438c3.10797,-1.74055 5.21596,-9.43728 3.45908,-11.91236c-1.72954,-2.44757 -5.8915,-7.34305 -5.8915,-9.08393c0,-1.74055 6.9455,-1.74055 6.9455,-4.5418s2.43209,-4.89548 4.86452,-5.95618c2.4591,-1.0607 5.56707,-5.6025 6.59405,-4.18845c1.054,1.41438 7.32362,3.15493 9.02648,1.0607c1.72954,-2.09423 10.81003,-9.79096 16.35009,-14.00626c5.56707,-4.18845 7.64805,-9.08393 9.0805,-14.00626c1.37843,-4.89548 3.45908,-8.05041 2.75653,-11.88518l0,0c2.08098,4.89548 2.43209,8.40375 2.08098,12.23853c-0.35144,3.86195 0,11.91236 0.70255,12.94589c0.67554,1.0607 3.48609,3.48109 5.18862,2.80125c1.72954,-0.67984 -0.67554,-7.69673 -0.67554,-9.08393c0,-1.41438 2.43209,-3.50827 3.83753,-3.86195c1.40544,-0.35368 0,-6.28235 -1.75655,-8.75743c-1.70253,-2.44757 -4.16196,-3.86195 -2.75653,-4.18845c1.37843,-0.35368 3.10797,-3.15493 2.08098,-3.86195c-1.054,-0.67984 -0.37845,-3.15493 -2.78353,-2.44757c-1.75655,0.51676 -6.51303,-0.40804 -6.35098,2.58381c-0.99998,-2.99151 -3.13498,-4.97702 -5.83749,-4.6777c-3.13498,0.35368 -4.89152,2.09423 -7.99949,2.09423s-0.67554,-4.89548 -2.08098,-4.89548c-1.37843,0 -4.54008,4.5418 -6.24261,2.09423c-1.72954,-2.44757 4.86452,-5.6025 10.08014,-7.34305c5.18862,-1.74055 13.89066,-11.91236 17.40409,-12.26571c3.45908,-0.35368 12.16112,0.70702 19.80917,0.35368c7.64805,-0.35368 10.08014,-3.50827 12.51257,-1.74055s7.64805,3.86195 10.78303,3.50827c3.13498,-0.38086 1.72954,0 6.59405,-3.50827c4.86452,-3.50827 9.4046,-5.24916 11.83702,-8.05041c2.43209,-2.80125 9.05349,-4.89548 9.4046,-2.09423c0.37845,2.80125 -0.70255,5.6025 2.08098,5.6025s6.97251,-2.80125 10.43158,-4.18845c3.48609,-1.3872 6.24261,-3.15493 6.24261,-3.15493s-14.2421,9.79096 -17.70118,11.91236c-3.48609,2.09423 -11.83702,3.50827 -15.32311,7.69673c-3.45908,4.21563 -5.54006,5.6025 -5.18862,10.17148c0.37845,4.5418 6.24261,10.49798 3.45908,14.68643c-2.78353,4.18845 -3.81052,10.1443 -3.81052,10.1443s4.16196,-5.95618 10.08014,-9.79096s9.4046,-9.08393 11.48558,-11.205s8.3506,-2.47475 8.3506,-4.92266s1.72954,-5.6025 2.81054,-8.40375c1.02699,-2.80125 -2.08098,-2.12141 0,-5.6025c2.05397,-3.50827 1.72954,-6.30953 12.16112,-6.30953s6.9455,0.70702 15.2961,0.35368c8.3506,-0.35368 11.45857,-4.5418 19.45806,-6.66321c7.99949,-2.09423 14.2421,-3.48109 16.70154,-2.42039c2.43209,1.03352 6.26962,0.3265 3.81052,-2.12141c-2.40508,-2.44757 -7.97248,-5.95618 -5.21596,-6.66321c2.81054,-0.70702 5.59408,-1.0607 6.64807,-3.86195c1.054,-2.80125 -3.83753,-7.69673 -1.054,-10.49798c2.81054,-2.80125 -2.08098,-6.28235 -5.59408,-6.98971c-3.45908,-0.67984 -17.02564,0.70702 -19.75516,-0.67984c-2.81054,-1.41438 -7.32362,-3.15493 -8.70204,-2.12141c-1.40544,1.0607 -4.54008,6.66321 -4.54008,6.66321s-2.43209,0.67984 -4.54008,-2.44757c-2.05397,-3.15493 -13.51254,-2.80125 -16.99863,-2.80125s-7.32362,0.67984 -11.16114,1.0607c-3.81052,0.35368 -5.91851,1.41438 -8.70204,-1.0607c-2.75653,-2.44757 -6.56705,-3.50827 -7.99949,-4.5418c-1.37843,-1.0607 -9.02648,-1.0607 -14.94466,-0.3265c-5.8915,0.67984 -11.83702,0.67984 -11.83702,0.67984s-2.81054,-1.0607 -6.9455,-3.50827c-4.16196,-2.44757 -8.3506,-4.18845 -9.75604,-4.18845c-1.37843,0 -12.13411,1.74055 -14.56654,0c-2.4591,-1.74055 -4.89152,-2.80125 -6.62106,-2.80125s-3.10797,-2.80125 -1.02699,-2.80125s11.81001,-2.80125 11.81001,-2.80125s-2.78353,-3.86195 -6.24261,-3.86195c-3.45908,0 -9.70202,-1.74055 -11.45857,-1.74055s-0.37845,1.74055 -3.83753,1.0607c-3.51309,-0.70702 -6.97251,-2.12141 -9.05349,-0.70702c-2.05397,1.3872 -6.97251,3.48109 -1.72954,4.89548c5.21596,1.41438 10.08014,0 11.48558,2.12141c1.40544,2.09423 0,3.12775 0,4.5418s-2.78353,5.24916 -4.51307,5.95618c-1.72954,0.67984 -3.86454,-1.0607 -7.29661,0.67984c-3.48609,1.74055 -12.18813,0.35368 -13.24213,1.41438c-1.02699,1.0607 -3.10797,-2.80125 -4.86452,-2.09423c-1.72954,0.67984 -6.26962,5.24916 -8.70204,4.89548c-2.40508,-0.35368 -5.56707,-2.80125 -5.56707,-5.6025s-1.02699,-6.30953 -2.08098,-7.01689c-1.02699,-0.67984 -8.70204,-1.0607 -11.48558,-0.67984c-2.78353,0.35368 -11.45857,1.03352 -12.89102,2.44757c-1.40544,1.41438 -5.21596,2.44757 -7.64805,2.44757s-4.51307,-2.44757 -9.72903,-3.15493c-5.18862,-0.70702 -16.6742,-1.0607 -18.07963,-0.70702s-5.8915,-0.67984 -4.18897,-2.09423c1.75655,-1.3872 6.9455,-5.95618 3.86454,-8.02323c-3.16199,-2.12141 -10.13449,-2.12141 -13.21512,-2.44757c-3.16199,-0.35368 -6.26962,-1.0607 -11.16114,-0.35368c-4.89152,0.70702 -5.91851,3.15493 -7.99949,1.0607c-2.08098,-2.09423 5.21596,1.0607 -2.08098,-2.09423c-7.29661,-3.15493 -10.78303,-2.80125 -12.89102,-1.74055c-2.08098,1.0607 0.35144,0.67984 -5.18862,2.80125c-5.56707,2.12141 -8.70204,3.15493 -10.10715,3.50827c-1.37843,0.3265 -10.05313,-1.76773 -11.10713,-2.47475c-1.02699,-0.67984 -4.89152,0.35368 -8.3506,1.74055s-6.02654,3.48109 -9.48562,2.80125c-3.48609,-0.7342 -9.05349,-0.7342 -12.53957,0.67984c-3.48609,1.3872 -5.91851,1.3872 -9.37759,3.83477c-3.51309,2.44757 -10.08014,3.86195 -10.08014,3.86195s-1.64851,-0.08154 -3.64847,-0.19026c54.75239,-47.86656 126.01693,-77.10319 204.09192,-77.10319c171.90523,0 311.70512,140.68971 311.70512,313.68911s-139.8269,313.66193 -311.70512,313.66193l0,-0.00168zm-30.0517,-207.04996c0,0 5.59408,-0.70702 5.59408,-3.18211c0,-2.42039 -5.59408,-5.57532 -7.62104,-2.77407c-2.10799,2.77407 -5.91851,5.57532 -5.59408,8.05041c0.51349,3.83477 7.62104,-2.09423 7.62104,-2.09423zm-0.35144,-78.78938c-4.89152,6.33704 -4.51307,4.94984 -7.99949,3.48109c-3.45908,-1.35969 -9.02648,3.15493 -7.99949,4.94984c1.054,1.74055 8.70204,-0.38086 10.43158,2.77407c1.75655,3.15493 1.75655,3.50827 5.21596,2.82843c3.45908,-0.70702 6.9455,-5.57532 5.91851,-8.02323c-1.02699,-2.52945 -5.56707,-6.01054 -5.56707,-6.01054l0,0.00034zm-1.02699,33.23449c-1.37843,0 -11.13414,1.74055 -12.18813,2.14859c-1.054,0.35368 -7.29661,-0.67984 -7.29661,-0.67984c-2.43209,2.42039 -0.70255,4.8683 3.13498,4.51462s11.83702,-1.41438 13.56656,-1.41438c1.75655,0 4.16196,-4.56898 2.78353,-4.56898l-0.00033,0zm-14.94466,-97.28341c-5.1346,0.81575 -8.32359,11.91236 -4.18897,11.55868c4.18897,-0.3265 8.70204,-12.23853 4.18897,-11.55868zm12.16112,62.30804c-1.40544,-1.74055 -4.89152,-7.37023 -8.72905,-5.95618c-1.13502,0.4624 -4.13496,6.66321 -0.32443,6.66321c3.83753,0 10.45859,1.03352 9.05349,-0.70702zm3.13498,-4.18845c6.26962,-0.35368 4.51307,-6.66321 -0.35144,-6.98971c-1.37843,-0.10872 -5.91851,7.34305 0.35144,6.98971zm74.07508,57.73906c-5.21596,-1.0607 -6.59405,-2.77407 -12.16112,-5.57532c-5.59408,-2.80125 -18.10664,-2.80125 -18.43108,-1.0607c-0.37845,1.74055 0,0 -4.18897,-1.35969c-4.13496,-1.46874 -7.32362,0 -8.3506,-2.47475c-1.02699,-2.47475 -3.45908,-3.18211 -6.59405,-0.05436c-2.62148,2.63817 -3.83753,2.82843 2.10799,3.88914c5.8915,1.0607 7.64805,1.0607 5.18862,3.83477c-2.43209,2.82843 -4.16196,6.33704 -2.08098,6.63603c2.08098,0.40804 8.3506,-1.35969 9.02648,0c0.70255,1.46874 -1.37843,1.74055 5.59408,2.85561c6.97251,1.00634 8.3506,3.48109 9.70202,4.84112c1.37843,1.41438 5.56707,5.98336 2.81054,5.98336c-2.81054,0 -5.91851,3.48109 -3.83753,3.88914c2.08098,0.35368 8.3506,-1.0607 8.67504,0c0.37845,1.00634 3.86454,7.69673 7.32362,7.37023c3.48609,-0.35368 5.56707,-6.63603 7.29661,-8.43093c1.75655,-1.74055 8.70204,-2.82843 9.43161,0.3265c0.70255,3.15493 2.81054,6.33704 6.9455,8.45811c4.16196,2.06705 9.05349,4.18845 9.4046,2.42039c0.35144,-1.74055 -2.08098,-8.40375 -4.89152,-9.4101c-2.78353,-1.11506 -7.62104,-7.04407 -7.62104,-9.46446c0,-2.47475 -4.18897,-3.18211 -6.26962,-4.94984c-2.10799,-1.76773 -3.86454,-6.66321 -9.0805,-7.72391l0.00033,-0.00034zm-258.06074,-51.81006c-2.27004,1.00634 -4.18897,12.94589 0,14.33275c4.16196,1.41438 6.59405,-5.57532 5.21596,-7.37023c-1.40544,-1.65901 -2.08098,-8.32221 -5.21596,-6.96252zm199.63287,29.75339c-3.18899,-1.35969 -9.05349,11.5315 -4.89152,12.59221c4.18897,1.08788 7.29661,-11.5315 4.89152,-12.59221zm6.97251,-120.0471c2.08098,0 4.86452,-1.3872 4.86452,-5.24916c0,-3.86195 4.86452,0 7.29661,-0.35368s3.81052,-2.80125 4.86452,-5.6025c0.13504,-0.35368 0.21607,-0.57112 0.24308,-0.7342c-0.08103,0.65266 -0.02701,2.52945 2.56747,3.18211c4.16196,1.03352 5.54006,-1.74055 5.54006,-2.80125s7.64805,-2.80125 9.0805,-3.86195c1.37843,-1.03352 6.97251,-2.80125 7.29661,-4.18845c0.35144,-1.3872 0,-9.46446 1.72954,-10.1443c1.72954,-0.70702 4.16196,-0.70702 1.40544,-5.6025c-2.81054,-4.92266 -2.81054,-9.46446 -6.26962,-7.37023c-2.56747,1.55029 -1.02699,7.72391 -3.10797,11.91236s-3.83753,8.05041 -5.21596,8.05041s-8.67504,2.80125 -10.78303,4.89548c-2.05397,2.09423 -12.16112,-1.74055 -13.53955,0c-1.40544,1.74055 -4.16196,3.83477 -5.91851,5.24916c-1.75655,1.3872 -6.62106,0.35368 -5.59408,4.5418c0.97297,4.24281 3.43207,8.07759 5.54006,8.07759l0.00033,-0.00067zm47.61784,-44.79317c4.86452,-0.35368 9.4046,-1.74055 9.4046,-1.74055s7.32362,0.35368 6.26962,-3.15493c-1.081,-3.48109 -8.70204,-3.83477 -10.13449,-3.48109c-1.37843,0.35368 -3.83753,-3.86195 -6.59405,-3.15493c-2.59448,0.62548 -3.45908,4.21563 -3.45908,5.24916c0,1.0607 -9.72903,3.12775 -6.62106,5.95618c3.13498,2.77407 6.29696,0.67984 11.13414,0.3265l0.00033,-0.00034zm-95.64113,190.43272c2.81054,1.74055 7.99949,-5.95618 9.43161,-3.53546c1.37843,2.47475 -0.35144,3.53546 2.05397,6.69039c2.4591,3.10057 6.97251,2.77407 6.97251,2.77407s-0.35144,-8.40375 -4.18897,-10.52516c-3.83753,-2.09423 -6.26962,-4.51462 -1.72954,-3.83477c4.51307,0.70702 6.9455,-1.0607 5.91851,-3.10057c-1.054,-2.12141 -7.64805,-1.0607 -9.75604,-0.70702s-5.21596,-1.41438 -5.21596,-1.41438c-2.08098,0.65266 -1.70253,2.42039 -2.43209,5.95618c-0.70255,3.45391 -3.83753,5.90182 -1.054,7.69673zm189.55273,69.62391c-6.24261,-1.41438 -2.08098,1.0607 0,4.18845c2.08098,3.15493 6.26962,4.78676 6.97251,1.35969c0.29743,-1.71337 -0.72956,-4.13409 -6.97251,-5.54814zm26.78168,85.01736c-2.08098,1.74055 0,2.47475 -5.91851,5.98336c-5.94552,3.53546 -13.24213,7.37023 -14.62056,10.49798c-1.40544,3.15493 1.37843,4.92266 6.97251,5.22164c5.56707,0.35368 4.16196,1.44156 7.99949,-2.80125s7.32362,-6.63603 11.83702,-10.1443c4.54008,-3.48109 4.54008,-8.75743 4.54008,-8.75743s-4.89152,-4.84112 -5.21596,-3.83477c-0.59452,1.68619 -3.51309,2.12141 -5.59408,3.83477zm-92.18206,-85.01736c0.37845,-3.15493 -5.91851,-3.15493 -9.02648,-5.62968c-3.13498,-2.42039 -3.45908,-9.76378 -5.21596,-14.00626c-1.72954,-4.16127 -5.18862,-6.98971 -8.70204,-10.7973c-3.45908,-3.88914 -5.18862,-12.64657 -6.2156,-11.91236c-1.054,0.67984 -4.16196,10.85166 -1.72954,14.00626c2.43209,3.15493 -1.054,9.46446 -2.78353,13.68009c-1.75655,4.16127 -5.94552,-0.70702 -9.43161,-2.82843c-3.48609,-2.12141 -8.32359,-3.48109 -10.75602,-5.95618c-2.43209,-2.47475 4.18897,-9.11111 2.4591,-11.58586c-1.75655,-2.44757 -11.13414,-0.35368 -12.16112,-0.35368c-1.054,0 -3.13498,-3.48109 -5.24297,-3.48109c-2.08098,0 -1.72954,7.01689 -1.72954,7.01689s-2.10799,-2.47475 -5.21596,-5.62968c-3.16199,-3.12775 0.32443,2.09423 -2.78353,5.24916c-3.16199,3.18211 -2.135,2.12141 -3.48609,5.6025c-1.37843,3.50827 -4.51307,2.09423 -7.64805,-1.41438c-3.13498,-3.48109 -4.83751,-1.00634 -6.97251,0c-2.08098,1.0607 -3.81052,7.04407 -4.86452,8.40375c-1.054,1.41438 -8.3506,3.18211 -10.10715,4.94984c-1.72954,1.68619 -2.43209,7.34305 -2.43209,8.75743c0,1.35969 -7.32362,0.62548 -9.75604,2.42039c-2.43209,1.74055 -6.2156,0.67984 -8.67504,0.67984c-2.43209,0 -10.78303,6.63603 -13.56656,8.37657c-2.78353,1.79491 -2.78353,8.10477 -1.37843,9.84532c1.37843,1.71337 4.16196,5.95618 2.43209,6.63603c-1.72954,0.70702 -2.81054,5.6025 1.37843,9.76378c4.16196,4.21563 2.78353,5.27634 3.10797,7.37023c0.37845,2.09423 2.10799,2.82843 4.89152,6.30953c2.75653,3.48109 -4.89152,6.28235 -5.91851,8.43093c-1.054,2.06705 2.4591,5.22164 4.51307,6.98971c2.08098,1.71337 7.32362,0.70702 10.43158,-0.35368c3.16199,-1.0607 6.62106,-3.88914 8.67504,-4.21563c2.135,-0.35368 11.83702,-0.70702 11.83702,-0.70702s3.48609,-5.22164 5.91851,-8.05041c2.40508,-2.77407 10.05313,-0.35368 10.05313,-0.35368s3.16199,-2.06705 11.51259,-3.83477c8.3506,-1.76773 4.83751,1.74055 7.99949,2.82843c3.10797,1.00634 7.29661,1.68619 9.70202,3.48109c2.43209,1.74055 0,5.929 -0.32443,7.69673c-0.37845,1.74055 5.91851,1.03352 6.2156,-0.70702c0.37845,-1.74055 2.08098,-3.48109 5.59408,-5.57532c3.45908,-2.12141 0.67554,3.10057 2.05397,6.28235c1.40544,3.15493 3.48609,-4.27 3.48609,-0.70702c0,1.0607 1.054,2.12141 1.37843,3.15493c0.37845,1.0607 4.89152,1.41438 4.89152,4.89548c0,3.53546 0,5.62968 1.054,6.28235c1.02699,0.70702 6.59405,0 9.05349,4.21563c2.40508,4.18845 4.16196,0.35368 5.54006,-1.41438c1.40544,-1.74055 6.24261,0.70702 7.64805,2.12141c1.40544,1.35969 5.21596,-2.82843 10.45859,-4.21563c5.18862,-1.3872 4.51307,-1.0607 5.91851,-3.12775c1.37843,-2.12141 2.43209,-7.69673 5.54006,-11.91236c3.10797,-4.16127 7.32362,-11.5315 7.32362,-17.16119c0,-5.6025 -0.37845,-18.54839 -4.18897,-24.44987c-3.81052,-5.95618 -11.08012,-11.93954 -10.75602,-15.06696l0.00067,0.00101zm-12.83667,85.72472c-1.75655,-0.35368 -5.59408,-1.68619 -5.59408,-1.68619c-3.83753,3.83477 3.83753,3.83477 2.81054,7.69673c-1.054,3.83477 5.21596,2.42039 6.9455,1.74055c1.70253,-0.7342 5.94552,-8.78461 5.21596,-10.85166c-0.67554,-2.14859 -7.64805,3.45391 -9.37759,3.10057l-0.00033,0zm129.01687,-16.10048c-1.40544,0 -2.08098,1.74055 -5.18862,0c-3.16199,-1.71337 -2.4591,-1.00634 -4.54008,-4.5418c-2.08098,-3.45391 -2.4591,-8.05041 -5.91851,-6.25517c-1.37843,0.67984 0,4.56898 1.37843,5.929c1.43245,1.41438 2.08098,6.28235 1.72954,7.69673c-0.32443,1.41438 -6.24261,3.15493 -3.48609,4.89548c2.81054,1.74055 8.0265,0 7.32362,2.12141c-0.67554,2.09423 -3.48609,4.8683 -0.35144,5.57532c3.10797,0.67984 4.16196,-2.42039 5.59408,-4.84112c1.37843,-2.52945 2.40508,-4.59616 4.83751,-6.01054c2.43209,-1.41438 0,-4.56898 -1.37843,-4.56898l0,-0.00034zm0.32443,-81.53627c4.54008,1.74055 12.53957,-6.28235 9.37759,-7.34305c-3.10797,-1.0607 -9.37759,7.34305 -9.37759,7.34305zm-240.30521,-34.64887c-0.78358,3.12775 5.21596,4.5418 5.56707,1.0607c0.32443,-3.50827 -4.86452,-3.86195 -5.56707,-1.0607zm9.37759,-93.44863c-1.72954,1.76773 -6.9455,5.24916 -7.64805,8.43093c-0.67554,3.12775 8.3506,-4.94984 10.78303,-8.05041c2.4591,-3.18211 7.29661,-1.41438 8.32359,-3.18211c1.081,-1.71337 1.081,-1.71337 1.081,-1.71337s-3.83753,-0.67984 -6.9455,-1.71337c-3.16199,-1.0607 -6.97251,2.77407 -5.21596,-2.82843c1.72954,-5.6025 6.9455,-4.5418 5.91851,-8.75743c-1.054,-4.18845 -4.54008,-5.24916 -5.59408,-5.24916c-2.43209,0 0.35144,3.83477 -3.13498,6.28235c-3.45908,2.44757 -7.32362,3.48109 -5.21596,7.69673c2.08098,4.18845 9.37759,7.31587 7.64805,9.08393l0.00033,0.00034zm-27.45722,89.233c0.35144,-2.06705 -3.83753,-5.22164 -5.56707,-5.22164c-1.75655,0 -10.43158,-2.09423 -10.43158,-2.09423c-1.56749,0.62548 -3.64847,1.22379 -4.27,2.09423c-0.18906,-0.29932 -0.59452,-0.65266 -1.32408,-1.0607c-3.83753,-2.03987 -8.3506,0 -9.75604,-2.77407c-1.35109,-2.82843 -3.43207,-2.82843 -4.83751,-1.0607c-2.54046,3.18211 0.67554,5.6025 1.70253,6.28235c1.02699,0.65266 4.89152,1.41438 8.3506,1.0607c2.16201,-0.21744 4.89152,-0.7342 5.6751,-1.60465c0.10803,0.38086 0.43247,0.7342 0.94596,1.19661c2.78353,2.50227 4.51307,3.53546 8.67504,3.15493c4.21598,-0.2718 10.4856,2.14859 10.83704,0.02718zm-10.08014,-20.64228c1.75655,0 5.21596,0 7.64805,0.70702c2.43209,0.67984 10.43158,1.35969 10.08014,-1.74055c-0.35144,-3.12775 -1.02699,-8.07759 2.40508,-11.17782c3.51309,-3.18211 6.9455,-4.89548 5.21596,-9.46446c-1.70253,-4.5418 -5.21596,-7.37023 -2.78353,-9.49164c2.43209,-2.06705 5.18862,-2.77407 5.18862,-4.51462c0,-1.76773 -5.86449,4.89548 -6.59405,-6.69039c-0.13504,-2.47475 -5.56707,0.67984 -5.91851,3.15493c-0.32443,2.47475 3.83753,4.5418 -2.78353,4.5418c-6.62106,0 -6.9455,5.27634 -8.3506,6.30953c-1.40544,1.0607 -2.78353,1.3872 -5.59408,2.06705c-2.75653,0.70702 -3.43207,3.53546 -4.13496,5.27634c-0.67554,1.71337 -5.56707,-3.15493 -6.9455,-1.74055c-1.37843,1.41438 -0.35144,8.05041 2.08098,13.62573c2.48644,5.62968 8.72905,9.13829 10.4856,9.13829l0.00033,-0.00067zm-24.3766,-1.74055c1.75655,-2.09423 1.02699,-5.22164 -1.70253,-4.89548c-2.78353,0.35368 -5.21596,-4.56898 -9.72903,-7.69673c-4.54008,-3.10057 -7.99949,-5.27634 -12.18813,-9.79096c-4.16196,-4.5418 -9.37759,-7.37023 -12.16112,-9.76378c-2.81054,-2.47475 -6.9455,-3.53546 -8.70204,-3.15493c-4.29701,0.87044 6.24261,8.40375 7.32362,9.4101c1.054,1.11506 10.45859,9.11111 10.45859,13.00025s6.24261,12.94589 7.99949,14.33275c1.72954,1.41438 10.40458,6.63603 11.81001,9.46446c1.40544,2.80125 4.51307,3.53546 4.51307,-0.35368c-0.02701,-3.86195 0.67554,-8.43093 2.37807,-10.55234l0,0.00034zm-26.40323,-39.54435c1.72954,6.30953 5.21596,12.61939 6.59405,15.09414c1.40544,2.42039 7.32362,5.90182 9.4046,7.64237c2.08098,1.74055 5.18862,-0.65266 3.86454,-2.77407c-1.40544,-2.12141 -4.18897,-5.22164 -4.51307,-7.69673c-0.35144,-2.47475 -2.10799,-6.33704 -4.89152,-10.52516c-2.75653,-4.16127 -5.18862,-5.22164 -6.9455,-8.02323c-1.72954,-2.82843 -7.99949,-8.07759 -7.99949,-8.07759c-2.75653,0.35368 -2.75653,5.57532 -1.37843,7.37023c1.32408,1.71337 4.13496,0.70702 5.86449,6.98971l0.00033,0.00034z" id="svg_7"/>
  <text fill="#000000" stroke="#000" stroke-width="0" x="21.70095" y="22.86506" id="svg_8" font-size="24" font-family="Noto Sans JP" text-anchor="start" xml:space="preserve"/>
 </g>

</svg>