<svg width="24" height="24" xmlns="http://www.w3.org/2000/svg">
 <g>
  <title>Layer 1</title>
  <path stroke="#000" id="svg_7" d="m11.96192,0.24129c-6.50584,0 -11.77972,5.27388 -11.77972,11.77972c0,6.50584 5.27389,11.77972 11.77972,11.77972c6.50584,0 11.77972,-5.27388 11.77972,-11.77972c0,-6.50584 -5.27389,-11.77972 -11.77972,-11.77972zm-6.28052,4.87431c0.09888,0.04458 0.20668,0.08429 0.22694,0.11104c0.03161,0.04134 0.07294,0.16696 0.02107,0.19776c-0.05268,0.03161 -0.13535,0.02107 -0.1467,-0.07294c-0.01054,-0.09321 -0.02107,-0.10374 -0.14589,-0.14589c-0.01783,-0.00567 -0.02837,-0.0081 -0.04134,-0.01216c0.02837,-0.02594 0.05755,-0.05187 0.08591,-0.07781zm-0.41984,0.40038c0.02513,0.07051 0.09159,0.10131 0,0.13778c-0.04863,0.01945 -0.09888,0.02269 -0.14103,0.01702c0.04701,-0.05106 0.09159,-0.10536 0.14103,-0.1548zm6.70036,15.85245c-5.15555,0 -9.34824,-4.19269 -9.34824,-9.34743c0,-0.06889 0.00892,-0.13616 0.01054,-0.20587c0.00324,-0.00243 0.00648,-0.00486 0.00973,-0.00729c0.10455,-0.08267 0.22937,-0.29097 0.27071,-0.36472c0.04215,-0.07213 0.1467,-0.12482 0.09402,-0.20749c-0.04782,-0.07781 -0.23666,-0.18641 -0.32987,-0.21154c0.0081,-0.08024 0.02594,-0.15805 0.03647,-0.23829c0.05106,0.06241 0.11104,0.13778 0.16858,0.15724c0.09321,0.0308 0.40606,0.04215 0.45874,0.04215c0.05106,0 0.27071,0.01135 0.31285,-0.05187c0.04134,-0.06241 0.07294,-0.06241 0.12482,-0.06241c0.05187,0 0.14589,0.18722 0.21964,0.2083c0.07213,0.02107 0.2083,0.01054 0.19776,0.1467c-0.00973,0.13454 0.06241,0.25044 0.13535,0.26017c0.07294,0.01054 0.23991,-0.15724 0.23991,-0.15724s0,0.26098 -0.00973,0.355c-0.01054,0.0924 0.11428,0.43767 0.11428,0.43767s0.15643,0.32177 0.19776,0.39552c0.04215,0.07294 0.21883,0.29178 0.21883,0.3858c0,0.09483 0.02107,0.24072 0.08429,0.24072s0.12563,-0.16696 0.19776,-0.27152c0.07375,-0.10374 0.09483,-0.25125 0.12563,-0.355c0.03161,-0.10455 0.03161,-0.29178 0.03161,-0.36472c0,-0.07375 0.0616,-0.13616 0.2083,-0.19857c0.1467,-0.06241 0.25044,-0.23991 0.37526,-0.33392c0.12563,-0.09402 0.11509,-0.25044 0.36634,-0.25044c0.24963,0 0.22856,0 0.29178,-0.06322c0.06241,-0.06241 0.12482,-0.10374 0.15561,0.01054c0.03161,0.11509 0.2083,0.28124 0.23991,0.32339c0.03161,0.04215 0.09402,0.15643 0.08429,0.28205c-0.01054,0.12401 0.00973,0.27071 0.06241,0.27071c0.05187,0 0.15643,-0.1775 0.15643,-0.1775s0.22937,-0.15561 0.21883,0.01135c-0.01135,0.16615 0.02026,0.34446 0.02026,0.44739c0,0.10536 0.18803,0.355 0.18803,0.2934c0,-0.06403 0.08348,-0.23991 0.08348,-0.33473c0,-0.0924 0.05187,-0.05106 0.18722,0.04134c0.13535,0.09402 0.22937,0.28286 0.22937,0.28286s0.13616,0.12482 0.15643,0.1775c0.02107,0.05187 0.16696,-0.02026 0.19776,-0.08429c0.03161,-0.0616 0.05268,-0.09321 0.13535,-0.11428c0.08429,-0.02107 0.18722,-0.02107 0.21964,-0.13616c0.03161,-0.11509 0.12482,-0.24963 0,-0.40687c-0.12482,-0.15643 -0.18803,-0.26017 -0.28124,-0.33392c-0.09483,-0.07294 -0.16696,-0.26098 -0.16696,-0.26098s0.19776,-0.17669 0.26017,-0.23991c0.06403,-0.06241 0.15643,-0.02026 0.16777,0.05187c0.01054,0.07375 -0.09321,0.13616 -0.11428,0.29259c-0.02107,0.15561 0.12482,0.2083 0.16696,0.15561c0.04134,-0.05268 0.14589,-0.1775 0.14589,-0.2083c0,-0.03161 -0.07213,-0.02107 -0.08267,-0.13535c-0.01054,-0.11509 0.13454,-0.19857 0.18641,-0.16777c0.05349,0.03161 0.38661,-0.04134 0.54303,-0.12482s0.24963,-0.26098 0.34446,-0.33392c0.09402,-0.07213 0.4174,-0.31285 0.39633,-0.42713c-0.02107,-0.11509 0.00973,-0.27071 -0.07294,-0.4174c-0.08348,-0.14589 -0.18803,-0.2391 -0.22937,-0.30231c-0.04134,-0.06241 0.1775,-0.07294 0.28124,-0.16696c0.10455,-0.09402 0,-0.1775 -0.05187,-0.16696c-0.05187,0.01054 -0.18803,0.04215 -0.23991,0.03161c-0.05187,-0.01054 -0.08348,-0.06241 -0.16696,-0.12563c-0.08267,-0.06241 0.02107,-0.15561 0.07375,-0.14508c0.05187,0.01054 0.18641,-0.10455 0.24963,-0.15643c0.06241,-0.05187 0.15643,-0.09321 0.12482,-0.04134c-0.0308,0.05187 -0.10374,0.23991 -0.02107,0.25044c0.08429,0.01054 0.28205,-0.15643 0.31447,-0.14589c0.0308,0.01054 0.08267,0.14589 0.05187,0.2083c-0.03161,0.06241 -0.03161,0.16696 0.01054,0.15643c0.04134,-0.01054 0.12482,-0.10455 0.14589,-0.07294c0.02188,0.03161 0.12482,0.09402 0.07294,0.2083c-0.05106,0.11509 -0.15643,0.15643 -0.03161,0.23018c0.12482,0.07213 0.16696,0.00973 0.26098,-0.04215c0.09321,-0.05187 0.15643,-0.28124 0.10374,-0.355c-0.05187,-0.07294 -0.17669,-0.21883 -0.17669,-0.27071c0,-0.05187 0.2083,-0.05187 0.2083,-0.13535s0.07294,-0.14589 0.14589,-0.1775c0.07375,-0.03161 0.16696,-0.16696 0.19776,-0.12482c0.03161,0.04215 0.21964,0.09402 0.27071,0.03161c0.05187,-0.06241 0.3242,-0.29178 0.49035,-0.4174c0.16696,-0.12482 0.22937,-0.27071 0.27233,-0.4174c0.04134,-0.14589 0.10374,-0.23991 0.08267,-0.35419l0,0c0.06241,0.14589 0.07294,0.25044 0.06241,0.36472c-0.01054,0.11509 0,0.355 0.02107,0.3858c0.02026,0.03161 0.10455,0.10374 0.15561,0.08348c0.05187,-0.02026 -0.02026,-0.22937 -0.02026,-0.27071c0,-0.04215 0.07294,-0.10455 0.11509,-0.11509c0.04215,-0.01054 0,-0.18722 -0.05268,-0.26098c-0.05106,-0.07294 -0.12482,-0.11509 -0.08267,-0.12482c0.04134,-0.01054 0.09321,-0.09402 0.06241,-0.11509c-0.03161,-0.02026 -0.01135,-0.09402 -0.08348,-0.07294c-0.05268,0.0154 -0.19533,-0.01216 -0.19047,0.077c-0.02999,-0.08915 -0.09402,-0.14832 -0.17507,-0.1394c-0.09402,0.01054 -0.1467,0.06241 -0.23991,0.06241s-0.02026,-0.14589 -0.06241,-0.14589c-0.04134,0 -0.13616,0.13535 -0.18722,0.06241c-0.05187,-0.07294 0.14589,-0.16696 0.30231,-0.21883c0.15561,-0.05187 0.41659,-0.355 0.52196,-0.36553c0.10374,-0.01054 0.36472,0.02107 0.59409,0.01054c0.22937,-0.01054 0.30231,-0.10455 0.37526,-0.05187s0.22937,0.11509 0.32339,0.10455c0.09402,-0.01135 0.05187,0 0.19776,-0.10455c0.14589,-0.10455 0.28205,-0.15643 0.355,-0.23991c0.07294,-0.08348 0.27152,-0.14589 0.28205,-0.06241c0.01135,0.08348 -0.02107,0.16696 0.06241,0.16696s0.20911,-0.08348 0.31285,-0.12482c0.10455,-0.04134 0.18722,-0.09402 0.18722,-0.09402s-0.42713,0.29178 -0.53087,0.355c-0.10455,0.06241 -0.355,0.10455 -0.45955,0.22937c-0.10374,0.12563 -0.16615,0.16696 -0.15561,0.30312c0.01135,0.13535 0.18722,0.31285 0.10374,0.43767c-0.08348,0.12482 -0.11428,0.30231 -0.11428,0.30231s0.12482,-0.1775 0.30231,-0.29178s0.28205,-0.27071 0.34446,-0.33392s0.25044,-0.07375 0.25044,-0.1467s0.05187,-0.16696 0.08429,-0.25044c0.0308,-0.08348 -0.06241,-0.06322 0,-0.16696c0.0616,-0.10455 0.05187,-0.18803 0.36472,-0.18803s0.2083,0.02107 0.45874,0.01054c0.25044,-0.01054 0.34365,-0.13535 0.58356,-0.19857c0.23991,-0.06241 0.42713,-0.10374 0.50089,-0.07213c0.07294,0.0308 0.18803,0.00973 0.11428,-0.06322c-0.07213,-0.07294 -0.2391,-0.1775 -0.15643,-0.19857c0.08429,-0.02107 0.16777,-0.03161 0.19938,-0.11509c0.03161,-0.08348 -0.11509,-0.22937 -0.03161,-0.31285c0.08429,-0.08348 -0.06241,-0.18722 -0.16777,-0.2083c-0.10374,-0.02026 -0.51061,0.02107 -0.59247,-0.02026c-0.08429,-0.04215 -0.21964,-0.09402 -0.26098,-0.06322c-0.04215,0.03161 -0.13616,0.19857 -0.13616,0.19857s-0.07294,0.02026 -0.13616,-0.07294c-0.0616,-0.09402 -0.40525,-0.08348 -0.5098,-0.08348s-0.21964,0.02026 -0.33473,0.03161c-0.11428,0.01054 -0.1775,0.04215 -0.26098,-0.03161c-0.08267,-0.07294 -0.19695,-0.10455 -0.23991,-0.13535c-0.04134,-0.03161 -0.27071,-0.03161 -0.4482,-0.00973c-0.17669,0.02026 -0.355,0.02026 -0.355,0.02026s-0.08429,-0.03161 -0.2083,-0.10455c-0.12482,-0.07294 -0.25044,-0.12482 -0.29259,-0.12482c-0.04134,0 -0.36391,0.05187 -0.43686,0c-0.07375,-0.05187 -0.1467,-0.08348 -0.19857,-0.08348s-0.09321,-0.08348 -0.0308,-0.08348s0.35419,-0.08348 0.35419,-0.08348s-0.08348,-0.11509 -0.18722,-0.11509c-0.10374,0 -0.29097,-0.05187 -0.34365,-0.05187s-0.01135,0.05187 -0.11509,0.03161c-0.10536,-0.02107 -0.20911,-0.06322 -0.27152,-0.02107c-0.0616,0.04134 -0.20911,0.10374 -0.05187,0.14589c0.15643,0.04215 0.30231,0 0.34446,0.06322c0.04215,0.06241 0,0.09321 0,0.13535s-0.08348,0.15643 -0.13535,0.1775c-0.05187,0.02026 -0.1159,-0.03161 -0.21883,0.02026c-0.10455,0.05187 -0.36553,0.01054 -0.39714,0.04215c-0.0308,0.03161 -0.09321,-0.08348 -0.14589,-0.06241c-0.05187,0.02026 -0.18803,0.15643 -0.26098,0.14589c-0.07213,-0.01054 -0.16696,-0.08348 -0.16696,-0.16696s-0.0308,-0.18803 -0.06241,-0.20911c-0.0308,-0.02026 -0.26098,-0.03161 -0.34446,-0.02026c-0.08348,0.01054 -0.34365,0.0308 -0.38661,0.07294c-0.04215,0.04215 -0.15643,0.07294 -0.22937,0.07294s-0.13535,-0.07294 -0.29178,-0.09402c-0.15561,-0.02107 -0.50007,-0.03161 -0.54222,-0.02107s-0.17669,-0.02026 -0.12563,-0.06241c0.05268,-0.04134 0.2083,-0.1775 0.1159,-0.2391c-0.09483,-0.06322 -0.30394,-0.06322 -0.39633,-0.07294c-0.09483,-0.01054 -0.18803,-0.03161 -0.33473,-0.01054c-0.1467,0.02107 -0.1775,0.09402 -0.23991,0.03161c-0.06241,-0.06241 0.15643,0.03161 -0.06241,-0.06241c-0.21883,-0.09402 -0.32339,-0.08348 -0.38661,-0.05187c-0.06241,0.03161 0.01054,0.02026 -0.15561,0.08348c-0.16696,0.06322 -0.26098,0.09402 -0.30312,0.10455c-0.04134,0.00973 -0.3015,-0.05268 -0.33311,-0.07375c-0.0308,-0.02026 -0.1467,0.01054 -0.25044,0.05187s-0.18074,0.10374 -0.28448,0.08348c-0.10455,-0.02188 -0.27152,-0.02188 -0.37607,0.02026c-0.10455,0.04134 -0.1775,0.04134 -0.28124,0.11428c-0.10536,0.07294 -0.30231,0.11509 -0.30231,0.11509s-0.04944,-0.00243 -0.10942,-0.00567c1.64206,-1.42647 3.77933,-2.29775 6.12085,-2.29775c5.15555,0 9.34824,4.19269 9.34824,9.34824s-4.1935,9.34743 -9.34824,9.34743zm-0.90127,-6.17029c0,0 0.16777,-0.02107 0.16777,-0.09483c0,-0.07213 -0.16777,-0.16615 -0.22856,-0.08267c-0.06322,0.08267 -0.1775,0.16615 -0.16777,0.23991c0.0154,0.11428 0.22856,-0.06241 0.22856,-0.06241zm-0.01054,-2.348c-0.1467,0.18885 -0.13535,0.14751 -0.23991,0.10374c-0.10374,-0.04052 -0.27071,0.09402 -0.23991,0.14751c0.03161,0.05187 0.26098,-0.01135 0.31285,0.08267c0.05268,0.09402 0.05268,0.10455 0.15643,0.08429c0.10374,-0.02107 0.2083,-0.16615 0.1775,-0.2391c-0.0308,-0.07538 -0.16696,-0.17912 -0.16696,-0.17912zm-0.0308,0.99042c-0.04134,0 -0.33392,0.05187 -0.36553,0.06403c-0.03161,0.01054 -0.21883,-0.02026 -0.21883,-0.02026c-0.07294,0.07213 -0.02107,0.14508 0.09402,0.13454s0.355,-0.04215 0.40687,-0.04215c0.05268,0 0.12482,-0.13616 0.08348,-0.13616zm-0.4482,-2.89914c-0.15399,0.02431 -0.24963,0.355 -0.12563,0.34446c0.12563,-0.00973 0.26098,-0.36472 0.12563,-0.34446zm0.36472,1.85684c-0.04215,-0.05187 -0.1467,-0.21964 -0.26179,-0.1775c-0.03404,0.01378 -0.12401,0.19857 -0.00973,0.19857c0.11509,0 0.31366,0.0308 0.27152,-0.02107zm0.09402,-0.12482c0.18803,-0.01054 0.13535,-0.19857 -0.01054,-0.2083c-0.04134,-0.00324 -0.1775,0.21883 0.01054,0.2083zm2.22156,1.72068c-0.15643,-0.03161 -0.19776,-0.08267 -0.36472,-0.16615c-0.16777,-0.08348 -0.54303,-0.08348 -0.55276,-0.03161c-0.01135,0.05187 0,0 -0.12563,-0.04052c-0.12401,-0.04377 -0.21964,0 -0.25044,-0.07375c-0.0308,-0.07375 -0.10374,-0.09483 -0.19776,-0.00162c-0.07862,0.07862 -0.11509,0.08429 0.06322,0.1159c0.17669,0.03161 0.22937,0.03161 0.15561,0.11428c-0.07294,0.08429 -0.12482,0.18885 -0.06241,0.19776c0.06241,0.01216 0.25044,-0.04052 0.27071,0c0.02107,0.04377 -0.04134,0.05187 0.16777,0.0851c0.20911,0.02999 0.25044,0.10374 0.29097,0.14427c0.04134,0.04215 0.16696,0.17831 0.08429,0.17831c-0.08429,0 -0.1775,0.10374 -0.11509,0.1159c0.06241,0.01054 0.25044,-0.03161 0.26017,0c0.01135,0.02999 0.1159,0.22937 0.21964,0.21964c0.10455,-0.01054 0.16696,-0.19776 0.21883,-0.25125c0.05268,-0.05187 0.26098,-0.08429 0.28286,0.00973c0.02107,0.09402 0.08429,0.18885 0.2083,0.25206c0.12482,0.0616 0.27152,0.12482 0.28205,0.07213c0.01054,-0.05187 -0.06241,-0.25044 -0.1467,-0.28043c-0.08348,-0.03323 -0.22856,-0.20992 -0.22856,-0.28205c0,-0.07375 -0.12563,-0.09483 -0.18803,-0.14751c-0.06322,-0.05268 -0.1159,-0.19857 -0.27233,-0.23018zm-7.73941,-1.54399c-0.06808,0.02999 -0.12563,0.3858 0,0.42713c0.12482,0.04215 0.19776,-0.16615 0.15643,-0.21964c-0.04215,-0.04944 -0.06241,-0.24801 -0.15643,-0.20749zm5.98712,0.88668c-0.09564,-0.04052 -0.27152,0.34365 -0.1467,0.37526c0.12563,0.03242 0.21883,-0.34365 0.1467,-0.37526zm0.20911,-3.57752c0.06241,0 0.14589,-0.04134 0.14589,-0.15643c0,-0.11509 0.14589,0 0.21883,-0.01054s0.11428,-0.08348 0.14589,-0.16696c0.00405,-0.01054 0.00648,-0.01702 0.00729,-0.02188c-0.00243,0.01945 -0.00081,0.07538 0.077,0.09483c0.12482,0.0308 0.16615,-0.05187 0.16615,-0.08348s0.22937,-0.08348 0.27233,-0.11509c0.04134,-0.0308 0.20911,-0.08348 0.21883,-0.12482c0.01054,-0.04134 0,-0.28205 0.05187,-0.30231c0.05187,-0.02107 0.12482,-0.02107 0.04215,-0.16696c-0.08429,-0.1467 -0.08429,-0.28205 -0.18803,-0.21964c-0.077,0.0462 -0.0308,0.23018 -0.09321,0.355s-0.11509,0.23991 -0.15643,0.23991s-0.26017,0.08348 -0.32339,0.14589c-0.0616,0.06241 -0.36472,-0.05187 -0.40606,0c-0.04215,0.05187 -0.12482,0.11428 -0.1775,0.15643c-0.05268,0.04134 -0.19857,0.01054 -0.16777,0.13535c0.02918,0.12644 0.10293,0.24072 0.16615,0.24072zm1.42809,-1.33488c0.14589,-0.01054 0.28205,-0.05187 0.28205,-0.05187s0.21964,0.01054 0.18803,-0.09402c-0.03242,-0.10374 -0.26098,-0.11428 -0.30394,-0.10374c-0.04134,0.01054 -0.11509,-0.11509 -0.19776,-0.09402c-0.07781,0.01864 -0.10374,0.12563 -0.10374,0.15643c0,0.03161 -0.29178,0.09321 -0.19857,0.1775c0.09402,0.08267 0.18885,0.02026 0.33392,0.00973zm-2.86834,5.67508c0.08429,0.05187 0.23991,-0.1775 0.28286,-0.10536c0.04134,0.07375 -0.01054,0.10536 0.0616,0.19938c0.07375,0.0924 0.20911,0.08267 0.20911,0.08267s-0.01054,-0.25044 -0.12563,-0.31366c-0.11509,-0.06241 -0.18803,-0.13454 -0.05187,-0.11428c0.13535,0.02107 0.2083,-0.03161 0.1775,-0.0924c-0.03161,-0.06322 -0.22937,-0.03161 -0.29259,-0.02107s-0.15643,-0.04215 -0.15643,-0.04215c-0.06241,0.01945 -0.05106,0.07213 -0.07294,0.1775c-0.02107,0.10293 -0.11509,0.17588 -0.03161,0.22937zm5.68481,2.07486c-0.18722,-0.04215 -0.06241,0.03161 0,0.12482c0.06241,0.09402 0.18803,0.14265 0.20911,0.04052c0.00892,-0.05106 -0.02188,-0.1232 -0.20911,-0.16534zm0.8032,2.5336c-0.06241,0.05187 0,0.07375 -0.1775,0.17831c-0.17831,0.10536 -0.39714,0.21964 -0.43848,0.31285c-0.04215,0.09402 0.04134,0.1467 0.20911,0.15561c0.16696,0.01054 0.12482,0.04296 0.23991,-0.08348s0.21964,-0.19776 0.355,-0.30231c0.13616,-0.10374 0.13616,-0.26098 0.13616,-0.26098s-0.1467,-0.14427 -0.15643,-0.11428c-0.01783,0.05025 -0.10536,0.06322 -0.16777,0.11428zm-2.7646,-2.5336c0.01135,-0.09402 -0.1775,-0.09402 -0.27071,-0.16777c-0.09402,-0.07213 -0.10374,-0.29097 -0.15643,-0.4174c-0.05187,-0.12401 -0.15561,-0.2083 -0.26098,-0.32177c-0.10374,-0.1159 -0.15561,-0.37688 -0.18641,-0.355c-0.03161,0.02026 -0.12482,0.32339 -0.05187,0.4174c0.07294,0.09402 -0.03161,0.28205 -0.08348,0.40768c-0.05268,0.12401 -0.17831,-0.02107 -0.28286,-0.08429c-0.10455,-0.06322 -0.24963,-0.10374 -0.32258,-0.1775c-0.07294,-0.07375 0.12563,-0.27152 0.07375,-0.34527c-0.05268,-0.07294 -0.33392,-0.01054 -0.36472,-0.01054c-0.03161,0 -0.09402,-0.10374 -0.15724,-0.10374c-0.06241,0 -0.05187,0.20911 -0.05187,0.20911s-0.06322,-0.07375 -0.15643,-0.16777c-0.09483,-0.09321 0.00973,0.06241 -0.08348,0.15643c-0.09483,0.09483 -0.06403,0.06322 -0.10455,0.16696c-0.04134,0.10455 -0.13535,0.06241 -0.22937,-0.04215c-0.09402,-0.10374 -0.14508,-0.02999 -0.20911,0c-0.06241,0.03161 -0.11428,0.20992 -0.14589,0.25044c-0.03161,0.04215 -0.25044,0.09483 -0.30312,0.14751c-0.05187,0.05025 -0.07294,0.21883 -0.07294,0.26098c0,0.04052 -0.21964,0.01864 -0.29259,0.07213c-0.07294,0.05187 -0.18641,0.02026 -0.26017,0.02026c-0.07294,0 -0.32339,0.19776 -0.40687,0.24963c-0.08348,0.05349 -0.08348,0.24153 -0.04134,0.2934c0.04134,0.05106 0.12482,0.1775 0.07294,0.19776c-0.05187,0.02107 -0.08429,0.16696 0.04134,0.29097c0.12482,0.12563 0.08348,0.15724 0.09321,0.21964c0.01135,0.06241 0.06322,0.08429 0.1467,0.18803c0.08267,0.10374 -0.1467,0.18722 -0.1775,0.25125c-0.03161,0.0616 0.07375,0.15561 0.13535,0.2083c0.06241,0.05106 0.21964,0.02107 0.31285,-0.01054c0.09483,-0.03161 0.19857,-0.1159 0.26017,-0.12563c0.06403,-0.01054 0.355,-0.02107 0.355,-0.02107s0.10455,-0.15561 0.1775,-0.23991c0.07213,-0.08267 0.3015,-0.01054 0.3015,-0.01054s0.09483,-0.0616 0.34527,-0.11428c0.25044,-0.05268 0.14508,0.05187 0.23991,0.08429c0.09321,0.02999 0.21883,0.05025 0.29097,0.10374c0.07294,0.05187 0,0.17669 -0.00973,0.22937c-0.01135,0.05187 0.1775,0.0308 0.18641,-0.02107c0.01135,-0.05187 0.06241,-0.10374 0.16777,-0.16615c0.10374,-0.06322 0.02026,0.0924 0.0616,0.18722c0.04215,0.09402 0.10455,-0.12725 0.10455,-0.02107c0,0.03161 0.03161,0.06322 0.04134,0.09402c0.01135,0.03161 0.1467,0.04215 0.1467,0.14589c0,0.10536 0,0.16777 0.03161,0.18722c0.0308,0.02107 0.19776,0 0.27152,0.12563c0.07213,0.12482 0.12482,0.01054 0.16615,-0.04215c0.04215,-0.05187 0.18722,0.02107 0.22937,0.06322c0.04215,0.04052 0.15643,-0.08429 0.31366,-0.12563c0.15561,-0.04134 0.13535,-0.03161 0.1775,-0.09321c0.04134,-0.06322 0.07294,-0.22937 0.16615,-0.355c0.09321,-0.12401 0.21964,-0.34365 0.21964,-0.51142c0,-0.16696 -0.01135,-0.55276 -0.12563,-0.72863c-0.11428,-0.1775 -0.3323,-0.35581 -0.32258,-0.44901zm-0.38498,2.55468c-0.05268,-0.01054 -0.16777,-0.05025 -0.16777,-0.05025c-0.11509,0.11428 0.11509,0.11428 0.08429,0.22937c-0.03161,0.11428 0.15643,0.07213 0.2083,0.05187c0.05106,-0.02188 0.17831,-0.26179 0.15643,-0.32339c-0.02026,-0.06403 -0.22937,0.10293 -0.28124,0.0924zm3.8693,-0.47981c-0.04215,0 -0.06241,0.05187 -0.15561,0c-0.09483,-0.05106 -0.07375,-0.02999 -0.13616,-0.13535c-0.06241,-0.10293 -0.07375,-0.23991 -0.1775,-0.18641c-0.04134,0.02026 0,0.13616 0.04134,0.17669c0.04296,0.04215 0.06241,0.18722 0.05187,0.22937c-0.00973,0.04215 -0.18722,0.09402 -0.10455,0.14589c0.08429,0.05187 0.24072,0 0.21964,0.06322c-0.02026,0.06241 -0.10455,0.14508 -0.01054,0.16615c0.09321,0.02026 0.12482,-0.07213 0.16777,-0.14427c0.04134,-0.07538 0.07213,-0.13697 0.14508,-0.17912c0.07294,-0.04215 0,-0.13616 -0.04134,-0.13616zm0.00973,-2.42986c0.13616,0.05187 0.37607,-0.18722 0.28124,-0.21883c-0.09321,-0.03161 -0.28124,0.21883 -0.28124,0.21883zm-7.20691,-1.03257c-0.0235,0.09321 0.15643,0.13535 0.16696,0.03161c0.00973,-0.10455 -0.14589,-0.11509 -0.16696,-0.03161zm0.28124,-2.78486c-0.05187,0.05268 -0.2083,0.15643 -0.22937,0.25125c-0.02026,0.09321 0.25044,-0.14751 0.32339,-0.23991c0.07375,-0.09483 0.21883,-0.04215 0.24963,-0.09483c0.03242,-0.05106 0.03242,-0.05106 0.03242,-0.05106s-0.11509,-0.02026 -0.2083,-0.05106c-0.09483,-0.03161 -0.20911,0.08267 -0.15643,-0.08429c0.05187,-0.16696 0.2083,-0.13535 0.1775,-0.26098c-0.03161,-0.12482 -0.13616,-0.15643 -0.16777,-0.15643c-0.07294,0 0.01054,0.11428 -0.09402,0.18722c-0.10374,0.07294 -0.21964,0.10374 -0.15643,0.22937c0.06241,0.12482 0.28124,0.21802 0.22937,0.27071zm-0.82346,2.65923c0.01054,-0.0616 -0.11509,-0.15561 -0.16696,-0.15561c-0.05268,0 -0.31285,-0.06241 -0.31285,-0.06241c-0.04701,0.01864 -0.10942,0.03647 -0.12806,0.06241c-0.00567,-0.00892 -0.01783,-0.01945 -0.03971,-0.03161c-0.11509,-0.06079 -0.25044,0 -0.29259,-0.08267c-0.04052,-0.08429 -0.10293,-0.08429 -0.14508,-0.03161c-0.07619,0.09483 0.02026,0.16696 0.05106,0.18722c0.0308,0.01945 0.1467,0.04215 0.25044,0.03161c0.06484,-0.00648 0.1467,-0.02188 0.1702,-0.04782c0.00324,0.01135 0.01297,0.02188 0.02837,0.03566c0.08348,0.07457 0.13535,0.10536 0.26017,0.09402c0.12644,-0.0081 0.31447,0.06403 0.32501,0.00081zm-0.30231,-0.61516c0.05268,0 0.15643,0 0.22937,0.02107c0.07294,0.02026 0.31285,0.04052 0.30231,-0.05187c-0.01054,-0.09321 -0.0308,-0.24072 0.07213,-0.33311c0.10536,-0.09483 0.2083,-0.14589 0.15643,-0.28205c-0.05106,-0.13535 -0.15643,-0.21964 -0.08348,-0.28286c0.07294,-0.0616 0.15561,-0.08267 0.15561,-0.13454c0,-0.05268 -0.17588,0.14589 -0.19776,-0.19938c-0.00405,-0.07375 -0.16696,0.02026 -0.1775,0.09402c-0.00973,0.07375 0.11509,0.13535 -0.08348,0.13535c-0.19857,0 -0.2083,0.15724 -0.25044,0.18803c-0.04215,0.03161 -0.08348,0.04134 -0.16777,0.0616c-0.08267,0.02107 -0.10293,0.10536 -0.12401,0.15724c-0.02026,0.05106 -0.16696,-0.09402 -0.2083,-0.05187c-0.04134,0.04215 -0.01054,0.23991 0.06241,0.40606c0.07457,0.16777 0.26179,0.27233 0.31447,0.27233zm-0.73107,-0.05187c0.05268,-0.06241 0.0308,-0.15561 -0.05106,-0.14589c-0.08348,0.01054 -0.15643,-0.13616 -0.29178,-0.22937c-0.13616,-0.0924 -0.23991,-0.15724 -0.36553,-0.29178c-0.12482,-0.13535 -0.28124,-0.21964 -0.36472,-0.29097c-0.08429,-0.07375 -0.2083,-0.10536 -0.26098,-0.09402c-0.12887,0.02594 0.18722,0.25044 0.21964,0.28043c0.03161,0.03323 0.31366,0.27152 0.31366,0.38742s0.18722,0.3858 0.23991,0.42713c0.05187,0.04215 0.31204,0.19776 0.35419,0.28205c0.04215,0.08348 0.13535,0.10536 0.13535,-0.01054c-0.00081,-0.11509 0.02026,-0.25125 0.07132,-0.31447zm-0.79185,-1.17846c0.05187,0.18803 0.15643,0.37607 0.19776,0.44982c0.04215,0.07213 0.21964,0.17588 0.28205,0.22775c0.06241,0.05187 0.15561,-0.01945 0.1159,-0.08267c-0.04215,-0.06322 -0.12563,-0.15561 -0.13535,-0.22937c-0.01054,-0.07375 -0.06322,-0.18885 -0.1467,-0.31366c-0.08267,-0.12401 -0.15561,-0.15561 -0.2083,-0.2391c-0.05187,-0.08429 -0.23991,-0.24072 -0.23991,-0.24072c-0.08267,0.01054 -0.08267,0.16615 -0.04134,0.21964c0.03971,0.05106 0.12401,0.02107 0.17588,0.2083z" stroke-width="0.1" fill="#fff"/>
  <text xml:space="preserve" text-anchor="start" font-family="Noto Sans JP" font-size="24" id="svg_8" y="22.86506" x="21.70095" stroke-width="0" stroke="#000" fill="#000000"/>
 </g>

</svg>