<?xml version="1.0" standalone="no"?>
<!DOCTYPE svg PUBLIC "-//W3C//DTD SVG 20010904//EN"
 "http://www.w3.org/TR/2001/REC-SVG-20010904/DTD/svg10.dtd">
<svg version="1.0" xmlns="http://www.w3.org/2000/svg"
 width="700.000000pt" height="700.000000pt" viewBox="0 0 700.000000 700.000000"
 preserveAspectRatio="xMidYMid meet">
<metadata>
Created by potrace 1.14, written by Peter Selinger 2001-2017
</metadata>
<g transform="translate(0.000000,700.000000) scale(0.100000,-0.100000)"
fill="#000000" stroke="none">
<path d="M3250 6954 c-299 -26 -561 -78 -825 -165 -992 -322 -1798 -1095
-2164 -2075 -137 -368 -204 -715 -217 -1119 -27 -850 254 -1664 805 -2330 101
-121 313 -332 441 -439 481 -399 1090 -673 1690 -760 255 -37 579 -47 820 -26
675 61 1321 321 1855 746 142 114 417 389 529 529 407 512 653 1090 741 1740
22 163 31 545 16 715 -64 727 -323 1370 -778 1929 -111 136 -360 384 -488 487
-524 418 -1100 664 -1756 750 -118 15 -563 27 -669 18z m535 -725 c494 -46
1025 -267 1435 -595 120 -96 312 -290 410 -414 319 -402 515 -859 587 -1370
26 -190 24 -558 -6 -749 -47 -310 -133 -578 -273 -853 -139 -273 -289 -481
-507 -699 -350 -350 -767 -591 -1232 -713 -753 -198 -1548 -71 -2193 350 -574
375 -989 949 -1161 1606 -19 73 -44 189 -55 258 -22 139 -45 428 -36 471 3 15
30 63 61 106 30 43 55 84 55 91 0 7 -23 27 -51 44 -40 26 -49 36 -45 52 3 12
6 25 6 30 0 5 11 -1 25 -14 21 -20 38 -23 121 -28 81 -4 103 -2 131 13 l34 18
32 -30 c17 -17 44 -33 59 -37 23 -5 29 -13 34 -47 6 -38 26 -69 43 -69 5 0 20
9 34 20 14 11 28 20 31 20 4 0 4 -22 0 -49 -10 -77 37 -206 126 -347 16 -26
30 -60 30 -74 0 -14 6 -35 14 -45 13 -18 16 -16 45 31 38 60 60 128 68 213 6
58 9 65 37 80 17 9 68 52 113 96 90 88 100 93 159 94 24 1 47 7 54 16 17 20
39 19 47 -2 3 -10 20 -36 38 -58 45 -57 55 -78 55 -124 0 -77 21 -92 58 -41
15 19 31 30 47 30 23 0 25 -3 25 -52 1 -77 14 -132 38 -163 l21 -27 17 61 17
60 28 -15 c16 -8 46 -38 67 -67 58 -77 76 -91 101 -78 11 6 25 20 30 29 5 10
28 24 49 30 31 10 43 19 51 44 22 63 15 93 -41 159 -61 70 -88 109 -88 125 0
7 20 28 44 48 62 50 100 32 60 -29 -8 -13 -14 -38 -12 -57 4 -45 36 -50 66 -8
21 27 21 32 7 53 -21 33 3 67 50 67 18 0 61 9 96 20 57 18 76 32 170 123 l107
102 -5 55 c-6 56 -25 102 -66 154 -12 16 -17 30 -12 32 48 18 80 42 83 63 4
23 2 24 -44 18 -38 -4 -55 -1 -76 15 -37 26 -35 44 5 64 17 9 46 28 63 40 39
30 46 30 34 -2 -23 -58 -5 -68 55 -32 45 26 59 13 50 -44 -4 -29 -2 -38 9 -38
8 0 18 5 21 11 9 13 45 -18 45 -38 0 -7 -7 -25 -16 -38 -13 -20 -14 -28 -4
-40 26 -31 80 -13 105 35 21 41 19 55 -15 105 -16 24 -30 46 -30 48 0 3 14 10
30 16 17 5 30 16 30 24 0 8 20 31 45 51 42 35 47 36 82 27 43 -12 29 -20 161
91 82 70 102 100 132 197 15 46 18 50 23 30 4 -13 7 -60 7 -105 0 -82 9 -104
41 -104 14 0 16 7 12 43 -4 31 -1 46 11 56 22 18 20 49 -4 89 -15 25 -18 37
-10 47 17 21 1 45 -30 45 -16 0 -31 -4 -35 -10 -3 -5 -15 0 -26 11 -14 14 -28
19 -42 15 -68 -20 -77 -19 -77 3 0 24 -3 25 -30 9 -21 -13 -36 -6 -25 12 3 6
33 24 65 40 33 16 74 43 92 58 70 60 76 62 164 56 51 -4 100 -2 133 6 44 10
57 10 91 -4 61 -24 83 -20 161 32 118 78 129 84 144 78 8 -3 15 -17 15 -31 0
-31 18 -32 78 -5 23 10 42 18 42 16 0 -10 -131 -87 -174 -103 -28 -11 -63 -34
-83 -57 -30 -32 -34 -44 -30 -75 2 -20 10 -51 18 -68 13 -33 13 -37 -19 -123
-7 -18 87 59 145 119 23 24 57 51 75 60 34 17 56 62 57 117 1 18 10 42 20 55
18 23 26 24 143 26 106 3 131 6 179 28 76 34 183 57 225 49 42 -8 43 3 4 41
l-31 29 33 16 c26 12 32 21 30 40 -2 14 -3 44 -3 67 -1 61 -22 73 -125 73 -48
0 -100 6 -125 15 l-44 16 -27 -33 c-23 -29 -29 -31 -45 -20 -45 31 -69 34
-200 28 -91 -4 -134 -2 -139 5 -4 6 -27 20 -51 31 -39 17 -57 19 -152 13
l-107 -7 -58 32 c-49 28 -68 33 -134 35 -82 2 -152 22 -152 42 0 7 8 13 18 13
32 0 93 21 87 30 -18 29 -248 50 -280 26 -25 -18 -11 -36 28 -36 55 0 77 -10
77 -36 0 -12 -10 -34 -22 -48 -20 -22 -35 -26 -115 -33 -52 -5 -100 -5 -111 0
-15 7 -28 4 -50 -12 -17 -11 -37 -21 -44 -21 -22 0 -45 30 -53 68 -5 23 -15
36 -33 43 -36 14 -134 3 -203 -22 -53 -19 -59 -19 -94 -5 -21 9 -84 19 -142
23 -57 3 -103 8 -103 10 0 2 10 17 22 33 16 23 19 33 10 42 -24 24 -215 38
-253 17 -16 -8 -23 -7 -32 5 -7 8 -33 21 -58 27 -43 12 -51 10 -125 -21 -77
-32 -79 -32 -145 -20 -62 12 -72 11 -121 -8 -35 -14 -74 -21 -115 -21 -50 1
-77 -6 -141 -35 -44 -20 -90 -36 -103 -36 -22 1 -21 3 16 36 72 63 246 187
352 250 509 306 1074 431 1688 373z m-2057 -767 c-4 -35 -29 -35 -46 0 -7 15
-22 30 -33 33 -16 5 -18 10 -9 21 10 11 18 10 52 -7 33 -17 39 -24 36 -47z
m-188 -76 c0 -8 -7 -17 -16 -20 -30 -11 -37 -6 -19 14 21 23 35 26 35 6z"/>
<path d="M3817 4522 c-10 -10 -17 -24 -17 -30 0 -7 -6 -12 -13 -12 -7 0 -22
-7 -33 -15 -18 -14 -18 -16 -1 -29 10 -8 14 -17 9 -20 -6 -3 -13 -28 -17 -55
-10 -72 -33 -103 -106 -138 -54 -26 -72 -31 -112 -26 -41 5 -52 2 -75 -19 -15
-13 -40 -30 -55 -36 -23 -10 -27 -16 -22 -35 21 -69 59 -84 83 -33 12 25 18
27 47 22 28 -6 36 -2 54 21 11 16 21 22 21 16 0 -16 46 -17 55 -2 4 6 40 26
81 44 72 33 74 35 74 69 0 23 8 44 21 57 l20 20 -24 53 -25 53 88 13 c110 16
123 23 91 50 -13 11 -35 20 -50 20 -15 0 -36 7 -47 15 -25 19 -28 18 -47 -3z"/>
<path d="M3056 3788 c-17 -24 -22 -78 -7 -78 17 0 51 52 51 76 0 30 -24 31
-44 2z"/>
<path d="M3080 3561 c0 -10 -16 -31 -35 -45 -19 -15 -35 -31 -35 -37 0 -5 18
-29 41 -54 l40 -44 -26 -17 c-26 -17 -51 -52 -42 -60 2 -2 30 18 61 46 31 27
66 50 76 50 22 0 35 16 20 25 -6 4 -30 8 -53 10 -34 3 -41 7 -39 22 2 10 14
28 28 40 28 26 30 45 8 67 -21 22 -44 20 -44 -3z"/>
<path d="M3207 3353 c-4 -3 -7 -17 -7 -30 0 -27 30 -32 50 -8 20 24 -21 61
-43 38z"/>
<path d="M3112 3308 c-7 -7 -12 -20 -12 -30 0 -15 8 -18 45 -18 51 0 55 7 22
38 -27 25 -38 27 -55 10z"/>
<path d="M2256 3263 c-14 -14 -5 -51 19 -73 13 -12 30 -39 36 -59 24 -74 60
-132 101 -161 42 -31 68 -38 68 -19 0 6 -18 48 -39 94 -48 100 -165 238 -185
218z"/>
<path d="M1590 3224 c-21 -54 -2 -112 33 -98 26 10 32 51 14 90 -20 41 -34 43
-47 8z"/>
<path d="M3212 3229 c-10 -16 -19 -19 -46 -13 -38 7 -76 -9 -76 -31 0 -10 11
-15 35 -15 25 0 41 -7 56 -24 18 -21 25 -23 51 -14 54 19 59 80 10 107 -14 7
-21 5 -30 -10z"/>
<path d="M2905 3146 c-12 -8 -16 -20 -13 -34 6 -22 4 -23 -54 -36 -15 -3 -29
-15 -33 -25 -3 -11 -23 -26 -45 -35 -21 -8 -44 -25 -50 -36 -9 -16 -15 -18
-30 -10 -31 17 -40 12 -40 -22 1 -46 31 -109 68 -140 24 -20 46 -27 106 -33
41 -3 80 -4 86 0 5 3 10 24 10 46 0 31 7 47 35 78 38 42 43 66 20 97 -21 28
-18 50 10 73 l26 20 -23 3 c-16 2 -26 13 -33 36 -10 36 -14 38 -40 18z"/>
<path d="M2145 3100 c-3 -5 30 -44 74 -87 51 -50 82 -89 86 -108 10 -43 63
-120 97 -140 16 -9 45 -32 64 -51 39 -40 54 -37 54 9 0 18 7 45 15 61 20 39
19 45 -11 56 -26 10 -65 41 -182 145 -100 89 -183 137 -197 115z"/>
<path d="M3344 2982 c-18 -11 -34 -49 -34 -77 0 -42 32 -27 50 22 14 43 7 70
-16 55z"/>
<path d="M3165 2949 c-22 -4 -59 -8 -82 -8 -31 -1 -43 -5 -43 -16 0 -12 13
-15 58 -14 80 2 116 11 120 32 2 9 0 16 -5 16 -4 -1 -26 -5 -48 -10z"/>
<path d="M3443 2893 c-33 -22 -28 -32 17 -39 48 -8 58 -19 36 -43 -9 -10 -16
-26 -16 -36 0 -15 6 -17 39 -11 28 4 40 2 44 -8 3 -7 27 -17 53 -21 37 -5 56
-15 81 -42 35 -37 41 -53 19 -53 -7 0 -19 -7 -26 -15 -11 -13 -6 -15 32 -15
38 0 47 -4 56 -24 6 -14 20 -30 32 -36 21 -11 24 -9 84 61 9 11 29 19 46 19
25 0 32 -6 45 -35 11 -28 26 -41 70 -61 31 -15 59 -24 62 -21 12 13 -19 69
-61 110 -25 24 -46 51 -46 60 0 9 -4 17 -8 17 -5 0 -35 23 -66 50 -31 28 -64
50 -72 50 -8 0 -40 14 -72 31 -50 26 -67 30 -132 29 -99 0 -145 8 -166 31 -20
22 -22 23 -51 2z"/>
<path d="M3015 2865 c-1 -5 -8 -27 -15 -48 -17 -54 -1 -69 40 -38 36 26 45 22
53 -19 5 -21 15 -34 33 -40 15 -6 29 -9 31 -6 12 12 -12 70 -40 96 l-32 30 38
0 c31 0 38 3 35 18 -3 14 -15 17 -72 17 -39 0 -69 -4 -71 -10z"/>
<path d="M2524 2685 c-16 -40 34 -70 98 -60 26 5 46 2 61 -7 12 -8 53 -18 90
-21 61 -6 68 -5 65 11 -5 28 -56 44 -152 48 -71 3 -97 8 -118 24 -33 24 -37
24 -44 5z"/>
<path d="M3197 2592 c-25 -26 -37 -62 -20 -62 13 0 93 42 99 51 8 14 -15 39
-35 39 -10 0 -29 -13 -44 -28z"/>
<path d="M3005 2571 c-9 -16 3 -31 26 -31 14 0 19 6 17 17 -4 20 -33 29 -43
14z"/>
<path d="M3819 2478 c-8 -32 -8 -51 0 -74 9 -24 8 -40 -5 -78 -20 -57 -36 -66
-73 -39 -15 12 -50 32 -79 47 -29 14 -52 29 -52 31 0 3 7 22 15 42 23 53 14
65 -44 62 -30 -2 -56 3 -65 10 -21 18 -46 7 -46 -21 0 -21 -1 -21 -30 7 -28
27 -30 27 -30 8 0 -24 -48 -103 -63 -103 -5 0 -23 11 -39 25 -27 23 -33 24
-52 12 -11 -8 -30 -30 -41 -50 -14 -26 -33 -42 -67 -56 -43 -18 -48 -24 -54
-59 -6 -38 -7 -39 -63 -50 -32 -7 -69 -12 -84 -12 -29 0 -57 -15 -119 -63 -43
-33 -51 -75 -21 -116 13 -19 14 -28 5 -42 -18 -28 -15 -44 13 -77 14 -17 28
-44 31 -60 4 -17 15 -39 25 -48 26 -23 24 -49 -6 -68 -32 -21 -32 -49 1 -75
33 -26 57 -26 114 1 25 11 72 24 105 29 53 7 63 12 95 49 32 37 39 41 80 39
25 -1 74 6 109 16 60 17 65 17 76 1 7 -9 29 -21 49 -27 50 -14 67 -34 56 -63
-18 -49 14 -48 66 2 l39 37 3 -33 c3 -28 7 -33 23 -29 11 3 19 0 19 -8 0 -7
11 -20 24 -29 16 -10 26 -27 28 -48 2 -25 9 -33 33 -41 17 -5 40 -19 52 -30
22 -20 23 -20 43 -2 18 16 25 17 52 7 27 -10 40 -8 97 15 l66 26 59 117 59
118 -5 93 c-6 105 -17 134 -85 217 -23 30 -43 60 -43 67 0 8 -20 23 -44 34
-42 18 -46 23 -64 85 -14 46 -33 80 -62 113 -23 27 -51 67 -61 91 -10 23 -21
42 -23 42 -3 0 -10 -19 -17 -42z"/>
<path d="M5145 2290 c-23 -24 -25 -30 -11 -30 25 0 54 17 66 40 17 32 -21 25
-55 -10z"/>
<path d="M4640 2152 c0 -18 59 -64 74 -59 21 8 20 20 -1 39 -21 18 -73 32 -73
20z"/>
<path d="M4970 1627 c0 -7 7 -22 15 -33 19 -25 19 -83 0 -90 -27 -11 -16 -33
18 -36 32 -3 34 -8 22 -40 -5 -13 -2 -18 11 -18 20 0 94 91 94 116 0 9 -11 14
-33 14 -36 0 -55 15 -81 68 -16 32 -46 44 -46 19z"/>
<path d="M4935 1428 c-11 -6 -34 -25 -50 -42 -17 -17 -59 -48 -93 -68 -34 -21
-65 -44 -68 -53 -11 -26 15 -45 63 -45 41 0 51 6 120 68 86 77 102 105 77 133
-20 22 -22 22 -49 7z"/>
<path d="M4010 1416 c-14 -8 -38 -12 -57 -9 -32 5 -45 -8 -22 -22 5 -4 14 -18
19 -31 7 -18 17 -24 40 -24 24 0 33 7 50 40 31 62 23 75 -30 46z"/>
</g>
</svg>
